<svg width="375" height="265" viewBox="0 0 375 265" fill="none" xmlns="http://www.w3.org/2000/svg">
<g clip-path="url(#clip0_8101_222255)">
<path d="M262.059 87.9115C262.869 51.8454 248.489 27.3831 244.299 20.3466C232.979 6.7854 220.519 3.01116 208.379 1.23446C187.879 -1.76687 149.809 -0.130694 124.209 15.3778C74.7494 45.3509 61.7494 68.2273 51.9194 87.9115C42.0894 107.596 39.2494 138.512 57.7894 169.68C68.8694 188.31 62.7894 217.832 71.4894 232.216C80.1894 246.6 100.789 251.188 133.879 239.102C166.969 227.016 176.369 233.912 179.789 235.388C187.649 238.801 210.429 244.733 217.549 247.915C250.069 260.934 271.999 257.301 278.899 253.848C300.289 243.167 310.829 223.082 314.469 210.233C323.189 178.644 307.849 158.93 303.299 151.251C298.749 143.562 280.689 128.926 272.619 119.983C266.179 112.826 262.889 95.6206 262.059 87.9115Z" fill="#F2F2F2"/>
<path d="M117.438 53.4634H96.0684V222.1H117.438V53.4634Z" fill="#B8B9BC" stroke="#020202" stroke-width="0.5" stroke-miterlimit="10"/>
<path d="M117.439 119.109H96.0693V222.098H117.439V119.109Z" fill="black" stroke="black" stroke-width="0.5" stroke-miterlimit="10"/>
<path d="M117.438 137.782H96.0684V222.1H117.438V137.782Z" fill="#676768" stroke="black" stroke-width="0.5" stroke-miterlimit="10"/>
<path d="M153.098 97.6499H129.568V221.738H153.098V97.6499Z" fill="#B8B9BC" stroke="#020202" stroke-width="0.5" stroke-miterlimit="10"/>
<path d="M153.099 150.156H129.569V221.736H153.099V150.156Z" fill="black" stroke="black" stroke-width="0.5" stroke-miterlimit="10"/>
<path d="M153.099 166.669H129.569V221.737H153.099V166.669Z" fill="#676768" stroke="black" stroke-width="0.5" stroke-miterlimit="10"/>
<path d="M188.239 78.4355H166.879V221.606H188.239V78.4355Z" fill="#B8B9BC" stroke="#020202" stroke-width="0.5" stroke-miterlimit="10"/>
<path d="M188.239 107.868H166.879V221.607H188.239V107.868Z" fill="black" stroke="black" stroke-width="0.5" stroke-miterlimit="10"/>
<path d="M188.239 122.745H166.879V221.608H188.239V122.745Z" fill="#676768" stroke="black" stroke-width="0.5" stroke-miterlimit="10"/>
<path d="M224.86 127.422H201.33V221.859H224.86V127.422Z" fill="#B8B9BC" stroke="#020202" stroke-width="0.5" stroke-miterlimit="10"/>
<path d="M224.859 170.343H201.329V221.847H224.859V170.343Z" fill="black" stroke="black" stroke-width="0.5" stroke-miterlimit="10"/>
<path d="M224.859 185.45H201.329V221.837H224.859V185.45Z" fill="#676768" stroke="black" stroke-width="0.5" stroke-miterlimit="10"/>
<path d="M260.018 53.4634H238.648V222.1H260.018V53.4634Z" fill="#B8B9BC" stroke="#020202" stroke-width="0.5" stroke-miterlimit="10"/>
<path d="M260.019 127.913H238.649V222.098H260.019V127.913Z" fill="black" stroke="black" stroke-width="0.5" stroke-miterlimit="10"/>
<path d="M260.018 142.389H238.648V222.099H260.018V142.389Z" fill="#676768" stroke="black" stroke-width="0.5" stroke-miterlimit="10"/>
<path d="M296.64 97.6499H273.1V221.738H296.64V97.6499Z" fill="#B8B9BC" stroke="#020202" stroke-width="0.5" stroke-miterlimit="10"/>
<path d="M296.64 137.417H273.1V221.735H296.64V137.417Z" fill="black" stroke="black" stroke-width="0.5" stroke-miterlimit="10"/>
<path d="M296.639 150.156H273.099V221.736H296.639V150.156Z" fill="#676768" stroke="black" stroke-width="0.5" stroke-miterlimit="10"/>
<path d="M112.688 53.4634H91.3184V222.1H112.688V53.4634Z" fill="white" stroke="#050505" stroke-width="0.5" stroke-miterlimit="10"/>
<path d="M112.689 119.109H91.3193V222.098H112.689V119.109Z" fill="black" stroke="black" stroke-width="0.5" stroke-miterlimit="10"/>
<path d="M112.688 137.782H91.3184V222.1H112.688V137.782Z" fill="#E1E1E1" stroke="#070707" stroke-width="0.5" stroke-miterlimit="10"/>
<path d="M148.339 97.6499H124.809V221.738H148.339V97.6499Z" fill="white" stroke="#050505" stroke-width="0.5" stroke-miterlimit="10"/>
<path d="M148.339 150.156H124.809V221.736H148.339V150.156Z" fill="black" stroke="black" stroke-width="0.5" stroke-miterlimit="10"/>
<path d="M148.339 166.669H124.809V221.737H148.339V166.669Z" fill="#E1E1E1" stroke="#070707" stroke-width="0.5" stroke-miterlimit="10"/>
<path d="M183.489 78.4355H162.129V221.606H183.489V78.4355Z" fill="white" stroke="#050505" stroke-width="0.5" stroke-miterlimit="10"/>
<path d="M183.489 107.857H162.129V221.596H183.489V107.857Z" fill="black" stroke="black" stroke-width="0.5" stroke-miterlimit="10"/>
<path d="M183.489 122.733H162.129V221.596H183.489V122.733Z" fill="#E1E1E1" stroke="#070707" stroke-width="0.5" stroke-miterlimit="10"/>
<path d="M220.098 127.422H196.568V221.859H220.098V127.422Z" fill="white" stroke="#050505" stroke-width="0.5" stroke-miterlimit="10"/>
<path d="M220.099 170.343H196.569V221.847H220.099V170.343Z" fill="black" stroke="black" stroke-width="0.5" stroke-miterlimit="10"/>
<path d="M220.099 185.45H196.569V221.837H220.099V185.45Z" fill="#E1E1E1" stroke="#070707" stroke-width="0.5" stroke-miterlimit="10"/>
<path d="M255.259 53.4634H233.889V222.1H255.259V53.4634Z" fill="white" stroke="#050505" stroke-width="0.5" stroke-miterlimit="10"/>
<path d="M255.259 127.913H233.889V222.098H255.259V127.913Z" fill="black" stroke="black" stroke-width="0.5" stroke-miterlimit="10"/>
<path d="M255.259 142.389H233.889V222.099H255.259V142.389Z" fill="#E1E1E1" stroke="#070707" stroke-width="0.5" stroke-miterlimit="10"/>
<path d="M291.87 97.6499H268.33V221.738H291.87V97.6499Z" fill="white" stroke="#050505" stroke-width="0.5" stroke-miterlimit="10"/>
<path d="M291.87 137.417H268.33V221.735H291.87V137.417Z" fill="black" stroke="black" stroke-width="0.5" stroke-miterlimit="10"/>
<path d="M291.869 150.156H268.329V221.736H291.869V150.156Z" fill="#E1E1E1" stroke="#070707" stroke-width="0.5" stroke-miterlimit="10"/>
<path d="M115.869 185.388L92.3691 155.274L93.9891 153.929L115.629 181.554L136.879 144.042L150.849 175.36L176.769 156.599L190.639 177.558L215.639 141.683L227.969 169.076L245.239 158.617L264.019 192.465L333.969 125.03L335.059 126.887L263.209 195.326L244.479 161.588L227.059 172.148L215.249 145.919L190.599 181.313L176.249 159.631L150.009 178.623L136.659 148.69L115.869 185.388Z" fill="#1D1D1F"/>
<path d="M118.609 182.55C118.429 184.337 116.909 185.632 115.209 185.441C113.519 185.251 112.289 183.655 112.469 181.868C112.649 180.081 114.169 178.796 115.869 178.987C117.559 179.178 118.789 180.774 118.609 182.55Z" fill="white" stroke="#050505" stroke-width="0.5" stroke-miterlimit="10"/>
<path d="M96.519 154.06C96.339 155.847 94.8191 157.142 93.1191 156.951C91.419 156.76 90.189 155.164 90.369 153.368C90.549 151.591 92.079 150.286 93.769 150.487C95.479 150.677 96.699 152.283 96.519 154.06Z" fill="white" stroke="#050505" stroke-width="0.5" stroke-miterlimit="10"/>
<path d="M139.639 146.442C139.449 148.219 137.929 149.514 136.239 149.323C134.539 149.133 133.319 147.537 133.499 145.75C133.689 143.963 135.209 142.668 136.899 142.859C138.589 143.05 139.819 144.656 139.639 146.442Z" fill="white" stroke="#050505" stroke-width="0.5" stroke-miterlimit="10"/>
<path d="M153.409 177.077C153.229 178.864 151.709 180.148 150.009 179.968C148.319 179.777 147.079 178.181 147.269 176.394C147.449 174.608 148.969 173.323 150.659 173.513C152.369 173.704 153.589 175.3 153.409 177.077Z" fill="white" stroke="#050505" stroke-width="0.5" stroke-miterlimit="10"/>
<path d="M179.589 158.458C179.409 160.245 177.889 161.539 176.189 161.349C174.489 161.158 173.269 159.562 173.449 157.765C173.639 155.989 175.159 154.694 176.849 154.884C178.549 155.075 179.769 156.681 179.589 158.458Z" fill="white" stroke="#050505" stroke-width="0.5" stroke-miterlimit="10"/>
<path d="M193.699 179.788C193.519 181.565 191.999 182.87 190.299 182.679C188.599 182.489 187.369 180.883 187.559 179.106C187.739 177.319 189.269 176.024 190.959 176.215C192.649 176.406 193.879 178.002 193.699 179.788Z" fill="white" stroke="#050505" stroke-width="0.5" stroke-miterlimit="10"/>
<path d="M218.779 144.174C218.589 145.95 217.069 147.255 215.379 147.065C213.679 146.874 212.459 145.268 212.639 143.491C212.819 141.704 214.339 140.409 216.039 140.6C217.729 140.781 218.949 142.387 218.779 144.174Z" fill="white" stroke="#050505" stroke-width="0.5" stroke-miterlimit="10"/>
<path d="M230.599 170.955C230.419 172.742 228.899 174.027 227.209 173.836C225.509 173.645 224.289 172.049 224.469 170.262C224.649 168.486 226.169 167.191 227.859 167.381C229.549 167.562 230.779 169.168 230.599 170.955Z" fill="white" stroke="#050505" stroke-width="0.5" stroke-miterlimit="10"/>
<path d="M248.139 160.857C247.949 162.644 246.439 163.939 244.739 163.748C243.049 163.557 241.819 161.961 241.999 160.164C242.179 158.378 243.709 157.093 245.399 157.283C247.099 157.474 248.319 159.07 248.139 160.857Z" fill="white" stroke="#050505" stroke-width="0.5" stroke-miterlimit="10"/>
<path d="M266.89 193.602C266.71 195.389 265.18 196.683 263.5 196.493C261.8 196.302 260.57 194.696 260.76 192.919C260.94 191.133 262.46 189.838 264.15 190.028C265.85 190.209 267.07 191.815 266.89 193.602Z" fill="white" stroke="#050505" stroke-width="0.5" stroke-miterlimit="10"/>
<path d="M43.2395 165.856C42.6595 165.304 42.0895 164.762 41.2395 163.959C42.1095 164.189 42.6895 164.34 43.2895 164.501C42.7295 163.748 41.5895 163.256 40.0195 163.437C37.9895 163.677 36.6295 162.965 35.6695 161.148C33.3295 156.731 30.8595 152.375 28.5695 147.918C28.1395 147.095 28.1295 145.89 28.3095 144.937C28.8595 142.126 30.2595 139.687 31.9495 137.489C30.1395 136.746 28.3395 136.003 26.3595 135.19C24.3795 139.185 21.7095 143.2 23.2695 147.958C24.2195 150.849 25.9795 153.549 27.7395 156.069C29.8695 159.11 32.3995 161.871 34.7195 164.772C35.6095 165.886 36.4195 167.05 37.3295 168.285C37.4295 167.853 37.5095 167.472 37.5995 167.1C39.1095 166.046 39.3895 166.097 42.6595 167.974C42.1395 166.779 41.4495 166.327 39.1395 165.655C39.9995 165.314 40.1995 165.364 42.3495 166.458C42.4095 166.398 42.4695 166.337 42.5295 166.287C41.6495 165.745 40.7795 165.203 39.8995 164.661C39.9295 164.591 39.9595 164.511 39.9895 164.44C41.0695 164.902 42.1595 165.364 43.2395 165.826V165.856Z" fill="#FEFEFE"/>
<path d="M46.8995 239.482C45.2195 239.482 43.6695 239.482 41.8995 239.482C41.8595 240.265 41.8095 241.098 41.7695 241.901C43.4095 243.206 45.0395 243.557 46.8995 242.383C46.8995 241.51 46.8995 240.576 46.8995 239.482Z" fill="#FEFEFE"/>
<path d="M65.5498 239.164C65.3198 239.997 65.0798 240.81 64.8398 241.684C66.3498 243.089 68.0098 243.3 69.9198 242.406C70.1198 241.653 70.3398 240.83 70.5598 240.007C68.8798 239.726 67.2998 239.465 65.5498 239.164Z" fill="#FEFEFE"/>
<path d="M42.3691 166.468C42.6591 166.679 42.9491 166.889 43.2391 167.1L43.2791 167.06C43.0391 166.809 42.7991 166.548 42.5591 166.287C42.4891 166.357 42.4291 166.418 42.3691 166.468Z" fill="#FEFEFE"/>
<path d="M43.2602 165.837C43.2802 165.887 43.3002 165.947 43.2902 165.917C43.3102 165.947 43.2802 165.897 43.2402 165.857C43.2402 165.857 43.2602 165.837 43.2602 165.837Z" fill="#FEFEFE"/>
<path d="M95.3491 72.202C95.3991 72.182 95.4591 72.152 95.3891 72.182C95.4391 72.102 95.4091 72.162 95.3691 72.212L95.3491 72.202Z" fill="#FEFEFE"/>
<path d="M43.2402 167.112C43.2802 167.172 43.3302 167.232 43.3702 167.292C43.3902 167.262 43.4102 167.242 43.4302 167.222C43.3802 167.172 43.3202 167.122 43.2702 167.072L43.2402 167.112Z" fill="#FEFEFE"/>
<path d="M43.0893 168.185L43.0693 168.255L43.1393 168.235L43.0893 168.185Z" fill="#FEFEFE"/>
<path d="M342.28 130.29C342.04 130.35 341.8 130.35 341.55 130.3L336.96 129.246L333.44 132.377C332.99 132.779 332.35 132.879 331.8 132.638C331.24 132.397 330.86 131.855 330.82 131.233L330.48 126.716L326.48 124.458C325.94 124.156 325.61 123.554 325.64 122.922C325.67 122.289 326.05 121.737 326.62 121.496L330.97 119.7L331.96 115.203C332.09 114.61 332.53 114.149 333.1 113.998C333.67 113.847 334.28 114.048 334.68 114.51L337.7 117.983L342.38 117.471C342.99 117.401 343.59 117.712 343.91 118.244C344.24 118.786 344.24 119.469 343.91 120.001L341.48 123.905L343.33 128.031C343.53 128.473 343.53 128.985 343.33 129.416C343.12 129.858 342.74 130.179 342.28 130.29Z" fill="#121314"/>
<path d="M319.429 122.634C320.257 122.634 320.929 121.96 320.929 121.128C320.929 120.297 320.257 119.623 319.429 119.623C318.6 119.623 317.929 120.297 317.929 121.128C317.929 121.96 318.6 122.634 319.429 122.634Z" fill="#121314"/>
<path d="M322.639 135.28C323.468 135.28 324.139 134.606 324.139 133.775C324.139 132.943 323.468 132.269 322.639 132.269C321.811 132.269 321.139 132.943 321.139 133.775C321.139 134.606 321.811 135.28 322.639 135.28Z" fill="#121314"/>
<path d="M337.799 109.644C338.628 109.644 339.299 108.97 339.299 108.138C339.299 107.306 338.628 106.632 337.799 106.632C336.971 106.632 336.299 107.306 336.299 108.138C336.299 108.97 336.971 109.644 337.799 109.644Z" fill="#121314"/>
<path d="M326.169 112.615C326.997 112.615 327.669 111.941 327.669 111.109C327.669 110.278 326.997 109.604 326.169 109.604C325.341 109.604 324.669 110.278 324.669 111.109C324.669 111.941 325.341 112.615 326.169 112.615Z" fill="#121314"/>
<path d="M333.339 140.831C334.168 140.831 334.839 140.157 334.839 139.326C334.839 138.494 334.168 137.82 333.339 137.82C332.511 137.82 331.839 138.494 331.839 139.326C331.839 140.157 332.511 140.831 333.339 140.831Z" fill="#121314"/>
<path d="M344.97 137.852C345.798 137.852 346.47 137.178 346.47 136.346C346.47 135.514 345.798 134.84 344.97 134.84C344.141 134.84 343.47 135.514 343.47 136.346C343.47 137.178 344.141 137.852 344.97 137.852Z" fill="#121314"/>
<path d="M347.529 115.435C348.358 115.435 349.029 114.761 349.029 113.93C349.029 113.098 348.358 112.424 347.529 112.424C346.701 112.424 346.029 113.098 346.029 113.93C346.029 114.761 346.701 115.435 347.529 115.435Z" fill="#121314"/>
<path d="M350.739 128.084C351.568 128.084 352.239 127.41 352.239 126.578C352.239 125.747 351.568 125.073 350.739 125.073C349.911 125.073 349.239 125.747 349.239 126.578C349.239 127.41 349.911 128.084 350.739 128.084Z" fill="#121314"/>
<path d="M332.349 111.089C331.549 111.29 330.719 110.758 330.489 109.884L328.079 100.399C327.859 99.5253 328.329 98.652 329.129 98.4513C329.929 98.2405 330.759 98.7825 330.989 99.6558L333.399 109.142C333.629 110.005 333.159 110.878 332.349 111.089Z" fill="#121314"/>
<path d="M341.989 149.022C341.189 149.223 340.359 148.681 340.129 147.818L337.719 138.332C337.499 137.458 337.969 136.585 338.769 136.384C339.569 136.174 340.399 136.716 340.629 137.589L343.039 147.075C343.269 147.938 342.799 148.811 341.989 149.022Z" fill="#121314"/>
<path d="M324.528 117.234C324.118 117.344 323.678 117.274 323.318 117.053L315.048 112.134C314.288 111.683 314.038 110.699 314.488 109.936C314.938 109.173 315.918 108.922 316.688 109.374L324.958 114.303C325.518 114.634 325.818 115.266 325.728 115.909C325.618 116.551 325.148 117.073 324.528 117.234Z" fill="#121314"/>
<path d="M354.609 137.498C354.239 137.588 353.849 137.538 353.519 137.337L346.079 132.9C345.399 132.489 345.179 131.605 345.579 130.923C345.979 130.24 346.859 130.009 347.549 130.411L354.989 134.848C355.489 135.149 355.759 135.721 355.679 136.303C355.599 136.885 355.169 137.357 354.609 137.498Z" fill="#121314"/>
<path d="M342.009 112.754C341.439 112.894 340.849 112.684 340.499 112.222C340.149 111.76 340.119 111.118 340.409 110.616L344.839 103.127C345.259 102.465 346.129 102.254 346.799 102.656C347.469 103.057 347.709 103.92 347.319 104.613L342.889 112.101C342.699 112.423 342.379 112.663 342.009 112.754Z" fill="#121314"/>
<path d="M325.419 144.976C324.849 145.116 324.259 144.905 323.909 144.444C323.559 143.972 323.529 143.339 323.819 142.838L328.239 135.369C328.649 134.687 329.529 134.466 330.209 134.868C330.889 135.269 331.119 136.162 330.719 136.845L326.299 144.313C326.109 144.634 325.799 144.875 325.419 144.976Z" fill="#121314"/>
<path d="M323.469 128.896L314.749 131.125C313.949 131.326 313.129 130.844 312.929 130.041C312.729 129.238 313.209 128.415 314.009 128.214L322.729 125.985C323.529 125.775 324.349 126.266 324.549 127.069C324.749 127.872 324.269 128.696 323.469 128.896Z" fill="#121314"/>
<path d="M357.379 120.214L348.659 122.442C347.859 122.643 347.039 122.161 346.829 121.358C346.629 120.555 347.109 119.732 347.909 119.531L356.629 117.293C357.429 117.092 358.249 117.574 358.449 118.377C358.669 119.19 358.179 120.013 357.379 120.214Z" fill="#121314"/>
<path d="M135.599 38.507L134.369 34.6224L138.239 33.3877L139.469 37.2724L135.599 38.507Z" fill="white" stroke="#050505" stroke-width="0.3" stroke-miterlimit="10"/>
<path d="M320.599 239.265L319.369 235.38L323.239 234.146L324.469 238.03L320.599 239.265Z" fill="white" stroke="#050505" stroke-width="0.3" stroke-miterlimit="10"/>
<path d="M273.409 73.9288L269.369 73.5875L269.709 69.5322L273.749 69.8735L273.409 73.9288Z" fill="white" stroke="#050505" stroke-width="0.3" stroke-miterlimit="10"/>
<path d="M42.4395 103.197C42.4395 103.197 44.5595 103.679 44.8095 102.475C45.0595 101.27 43.8995 98.6301 45.2195 96.8132C46.5395 94.9964 45.5095 94.9261 46.5395 94.9964C47.5695 95.0667 46.5395 94.9964 46.5395 94.9964C46.5395 94.9964 47.5295 97.1144 51.0395 96.8534C54.5395 96.5924 55.2095 96.5121 55.5095 96.0704C55.8095 95.6288 57.1095 101.571 57.1095 101.571L57.5495 103.117C57.5495 103.117 57.1895 99.7644 58.2395 97.5159C59.2895 95.2674 60.1395 93.9223 59.8495 92.3062C59.5695 90.6901 59.0695 90.4693 58.5995 90.2284C58.1295 89.9775 52.9295 87.7691 52.2795 87.468C51.6295 87.1668 53.1495 85.6009 52.0195 85.3199C50.8895 85.0388 48.0595 84.9083 46.3095 85.7415C44.5595 86.5646 42.5795 87.7892 42.3495 88.3312C42.1195 88.8733 41.9195 90.5396 41.7695 90.8407C41.6095 91.1519 39.8795 93.0691 39.5395 93.6814C39.1995 94.2937 38.4495 96.3515 38.5895 97.7568C38.7295 99.1721 39.4295 100.266 40.0595 100.959C40.6895 101.652 42.4395 103.197 42.4395 103.197Z" fill="#050505"/>
<path d="M74.0894 104.422C74.0894 104.422 80.5694 96.2008 83.2494 91.3425C85.9294 86.4842 88.8894 81.3749 88.8894 81.3749C88.8894 81.3749 90.5694 78.8554 89.9594 77.43C89.3494 76.0046 88.9994 75.4024 88.8894 75.292C88.7794 75.1815 88.2094 74.4086 88.4894 74.3183C88.7694 74.2279 89.4394 74.3685 89.4394 74.7399C89.4394 75.1113 90.7194 76.0849 90.9594 76.3961C91.1994 76.7073 91.4294 76.2757 91.6694 75.9444C91.9094 75.6232 94.0394 73.174 94.0794 72.9531C94.1094 72.7323 95.3194 71.3069 95.4394 72.0196C95.5594 72.7323 93.8994 75.3321 93.8994 75.3321C93.8994 75.3321 95.4194 77.6509 95.4394 78.2531C95.4594 78.8454 93.6694 81.7363 92.7894 82.1579C91.9094 82.5794 91.2394 83.513 91.2394 83.513C91.2394 83.513 87.7894 92.8582 86.1894 95.9499C84.5894 99.0315 77.8894 109.31 77.1794 109.401L74.0894 104.422Z" fill="#F2F2F2" stroke="#020202" stroke-width="0.5" stroke-miterlimit="10"/>
<path d="M42.6794 101.882C42.6794 101.882 41.5094 103.318 42.2194 104.813C42.9294 106.309 44.7894 106.52 45.4094 106.961C46.0294 107.413 48.7594 109.561 49.1694 110.013C49.3494 110.214 51.6094 111.127 53.8094 110.455C56.0094 109.782 57.1894 108.407 57.3694 107.072C57.5494 105.737 57.7394 104.03 57.1094 101.551C56.4794 99.0715 56.4494 96.0502 56.4494 96.0502L55.6694 95.0765L51.2194 95.2572L46.3494 94.1831L43.6894 96.01L42.6794 101.882Z" stroke="#020202" stroke-width="0.5" stroke-miterlimit="10"/>
<path d="M47 108.197L47.26 115.063C47.26 115.063 47.1 117.111 49.53 117.844C51.96 118.576 53.42 118.486 54.4 117.874C55.38 117.261 55.73 117.251 55.52 114.471C55.31 111.69 55.11 109.934 55.11 109.934C55.11 109.934 53.71 110.797 52.12 110.657C52.12 110.657 50.02 110.636 49.18 110.014L47 108.197Z" stroke="#020202" stroke-width="0.5" stroke-miterlimit="10"/>
<path d="M47.2593 115.062C47.2593 115.062 37.6393 117.973 35.8793 119.178C34.1193 120.382 28.4393 126.636 27.5693 128.423C26.6993 130.209 24.8093 135.038 25.3293 135.238C25.8493 135.439 31.4493 137.738 31.4493 137.738L37.7393 132.649C37.7393 132.649 38.0593 132.618 38.0093 133.281C37.9593 133.943 36.5293 158.265 36.5893 158.857C36.6493 159.45 36.9893 161.327 36.9893 161.327L65.3193 161.588L64.7793 157.091C64.7793 157.091 65.1293 129.507 66.4593 126.917C67.7893 124.327 68.8693 122.952 70.4693 120.904C72.0693 118.856 76.2193 113.567 76.6993 112.834C77.1793 112.101 77.9793 110.866 77.1793 109.401C76.3793 107.935 73.5893 103.609 73.5893 103.609C73.5893 103.609 71.9393 101.391 70.1693 103.298C70.1693 103.298 65.2093 109.019 63.4193 109.943C61.6293 110.866 55.6193 112.844 55.6193 112.844L55.4693 116.789C55.4693 116.789 55.0693 117.642 54.3893 117.883C53.7093 118.114 52.4693 118.756 50.5993 118.084C48.7293 117.411 48.0493 117.441 47.6793 116.568C47.3093 115.695 47.2593 115.062 47.2593 115.062Z" fill="white" stroke="#050505" stroke-width="0.5" stroke-miterlimit="10"/>
<path d="M25.3393 135.237C25.3393 135.237 21.7493 143.107 22.3093 146.56C22.8693 150.013 25.0893 153.596 27.6993 156.939C30.3093 160.281 33.6693 163.724 34.2293 165.019C34.7893 166.314 36.3893 167.88 36.8393 168.532C37.2893 169.185 36.9893 167.78 37.1093 167.348C37.2293 166.916 37.7793 166.535 38.5893 166.665C39.3893 166.796 42.0793 168.753 42.1693 168.221C42.2593 167.689 40.4393 166.485 39.8093 166.274C39.1693 166.063 38.6493 165.903 38.6493 165.903C38.6493 165.903 38.1393 165.381 39.1993 165.531C40.2593 165.682 42.7293 167.338 42.7293 167.338C42.7293 167.338 42.6593 166.776 42.2893 166.414C41.9193 166.063 39.5093 164.678 39.5093 164.678L42.7393 166.083C42.7393 166.083 43.3493 166.153 42.7393 165.591C42.1293 165.029 40.7393 164.176 40.7393 164.176C40.7393 164.176 42.9893 165.17 42.7893 164.718C42.5893 164.266 41.8193 163.303 40.6693 163.483C39.5193 163.654 39.8593 163.885 38.4093 163.684C36.9593 163.483 36.2593 162.851 36.0293 162.59C35.7993 162.329 28.6893 149.33 28.6893 149.33C28.6893 149.33 27.4393 146.65 27.8193 145.154C28.1993 143.659 30.3393 139.222 30.8993 138.459C31.4593 137.696 31.4593 137.706 31.4593 137.706L25.3393 135.237Z" stroke="#020202" stroke-width="0.5" stroke-miterlimit="10"/>
<path d="M36.0293 162.611C36.0293 162.611 37.1193 195.947 38.0493 212.379C38.9793 228.811 38.7693 239.16 41.3793 239.722H46.3793C46.3793 239.722 48.1393 240.154 48.3393 233.89C48.5393 227.627 50.2293 186.391 50.2293 186.391C50.2293 186.391 50.7393 178.592 51.0593 176.665C51.3793 174.727 51.8093 173.462 51.8093 173.462C51.8093 173.462 54.8693 176.263 57.9393 181.563C61.0093 186.863 66.6193 199.521 66.6193 199.521C66.6193 199.521 67.8493 203.566 67.9493 205.533C68.0493 207.501 66.1793 220.982 65.8393 222.949C65.4993 224.917 63.4393 236.611 63.4393 236.611C63.4393 236.611 62.8893 238.508 65.0193 239.421C65.0193 239.421 69.2893 240.395 70.5593 240.134C71.8293 239.873 72.3093 239.702 72.7693 238.157C73.2293 236.611 78.9193 214.728 79.0493 210.01C79.1793 205.293 80.1793 197.784 71.7993 181.282C71.7993 181.282 67.1693 171.967 66.2393 166.787C65.3093 161.598 65.3093 161.598 65.3093 161.598L36.0293 162.611Z" fill="#121314"/>
<path d="M41.3893 239.722L41.2593 242.141C41.2593 242.141 44.2093 245.384 46.3893 242.623V238.658H41.2593L41.3893 239.722Z" stroke="#020202" stroke-width="0.5" stroke-miterlimit="10"/>
<path d="M64.9395 238.658L64.0195 241.549C64.0195 241.549 66.3295 244.842 69.4095 242.643L70.4195 239.401L64.9395 238.658Z" stroke="#020202" stroke-width="0.5" stroke-miterlimit="10"/>
<path d="M41.2592 242.142L40.6992 241.78L40.1792 244.601C40.1792 244.601 40.0592 247.492 39.8492 248.335C39.6392 249.178 38.5492 251.949 38.2192 252.681C37.8892 253.414 37.2192 254.247 37.8092 255.06C38.3992 255.873 40.9992 257.279 44.3992 256.927C44.3992 256.927 47.6992 257.309 47.6492 254.528L47.5192 248.967C47.5192 248.967 47.3692 246.9 47.4492 245.856C47.5292 244.812 47.4792 243.928 47.4792 243.928C47.4792 243.928 47.3592 243.176 47.1392 242.704C46.9192 242.232 46.9192 242.242 46.9192 242.242L46.3792 242.613C46.3792 242.613 45.6192 243.607 44.4692 243.728C44.4792 243.728 42.5792 243.507 41.2592 242.142Z" fill="white" stroke="#050505" stroke-width="0.3" stroke-miterlimit="10"/>
<path d="M69.4102 242.646L70.0902 243.178C70.0902 243.178 69.8902 248.096 69.4102 248.739C69.4102 248.739 69.7202 249.08 70.6502 249.481C71.5802 249.883 75.9802 250.636 76.6802 250.756C77.3802 250.877 79.9002 251.268 79.3802 254.279C79.3802 254.279 79.2402 257.02 76.4902 257.492C76.4902 257.492 72.1402 257.672 71.5202 257.492C70.9002 257.311 65.5102 255.815 65.0202 255.655C64.5202 255.494 62.1502 254.922 61.8102 253.778C61.4802 252.643 61.5102 251.459 61.7102 249.742C61.9102 248.036 62.4202 244.874 62.4902 244.262C62.5602 243.649 62.4402 243.208 62.8002 242.646C63.1502 242.073 63.6202 241.501 64.0202 241.551C64.0202 241.551 65.2302 242.977 66.1102 243.178C66.1102 243.178 67.9002 243.87 69.4102 242.646Z" fill="white" stroke="#050505" stroke-width="0.3" stroke-miterlimit="10"/>
</g>
<defs>
<clipPath id="clip0_8101_222255">
<rect width="375" height="265" fill="white"/>
</clipPath>
</defs>
</svg>
