<svg width="375" height="265" viewBox="0 0 375 265" fill="none" xmlns="http://www.w3.org/2000/svg">
<g clip-path="url(#clip0_8101_222707)">
<path d="M273.339 86.3064C274.72 50.731 261.073 26.6814 257.094 19.766C246.265 6.44336 234.155 2.79507 222.328 1.11613C202.342 -1.72445 165.116 0.0996926 139.852 15.5459C91.0275 45.3857 71.6549 66.023 68.0145 87.4952C63.1759 116.092 46.7943 153.682 59.8831 177.55C70.0451 196.073 76.4843 215.576 84.7438 229.715C93.0124 243.854 113.062 248.256 145.597 236.149C178.131 224.043 187.196 230.786 190.516 232.229C198.144 235.55 211.818 252.676 218.724 255.761C250.289 268.421 280.263 253.302 287.059 249.862C308.133 239.199 318.77 219.333 322.53 206.645C331.576 175.444 316.904 156.078 312.596 148.527C308.279 140.976 290.873 126.637 283.135 117.861C276.943 110.846 274.025 93.9024 273.339 86.3064Z" fill="#F5F5F5"/>
<path d="M110.464 187.912L111.333 183.102L104.537 184.427L110.464 187.912Z" fill="#121314"/>
<path d="M136.98 198.775L109.458 193.884L111.333 183.102L136.98 198.775Z" fill="white" stroke="#050505" stroke-width="0.5" stroke-miterlimit="10"/>
<path d="M111.333 183.101L104.537 184.426L111.745 180.551L136.98 198.774L111.333 183.101Z" fill="#868686"/>
<path d="M111.745 180.543L113.912 173.02L136.98 198.766L111.745 180.543Z" fill="white" stroke="#050505" stroke-width="0.5" stroke-miterlimit="10"/>
<path d="M198.848 222.891C198.802 223.136 198.601 223.327 198.326 223.363C197.485 223.481 196.634 223.59 195.793 223.681C195.445 223.717 195.116 223.49 195.07 223.164C195.024 222.837 195.262 222.546 195.61 222.501C196.442 222.401 197.274 222.301 198.116 222.183C198.464 222.138 198.793 222.356 198.857 222.683C198.866 222.764 198.857 222.828 198.848 222.891ZM192.537 223.59C192.491 223.844 192.271 224.044 191.979 224.071C191.128 224.144 190.268 224.207 189.427 224.253C189.079 224.271 188.768 224.026 188.731 223.699C188.704 223.372 188.96 223.091 189.308 223.073C190.149 223.027 190.991 222.964 191.832 222.891C192.18 222.864 192.5 223.1 192.537 223.427C192.546 223.481 192.546 223.536 192.537 223.59ZM186.18 223.935C186.134 224.198 185.887 224.407 185.585 224.416C184.725 224.434 183.865 224.443 183.015 224.443C182.667 224.443 182.375 224.18 182.365 223.853C182.365 223.536 182.64 223.263 182.987 223.263C183.829 223.263 184.68 223.254 185.521 223.236C185.878 223.227 186.17 223.481 186.189 223.808C186.18 223.853 186.18 223.89 186.18 223.935ZM179.795 223.88C179.749 224.162 179.475 224.38 179.155 224.361C178.295 224.325 177.435 224.28 176.585 224.225C176.237 224.198 175.963 223.917 175.981 223.59C175.99 223.272 176.292 223.018 176.649 223.046C177.49 223.1 178.332 223.145 179.182 223.182C179.539 223.2 179.813 223.472 179.813 223.799C179.795 223.826 179.795 223.853 179.795 223.88ZM173.42 223.409C173.365 223.708 173.063 223.926 172.725 223.89C171.865 223.799 171.014 223.69 170.164 223.572C169.816 223.517 169.569 223.218 169.615 222.9C169.679 222.546 169.981 222.356 170.328 222.401C171.161 222.519 172.002 222.628 172.844 222.719C173.191 222.755 173.447 223.046 173.42 223.372C173.429 223.381 173.42 223.399 173.42 223.409ZM167.1 222.465V222.474C167.036 222.791 166.706 223 166.359 222.937C165.508 222.773 164.667 222.601 163.834 222.41C163.487 222.338 163.258 222.047 163.349 221.693C163.423 221.376 163.77 221.176 164.109 221.258C164.923 221.439 165.755 221.612 166.587 221.775C166.926 221.848 167.155 222.147 167.1 222.465ZM160.88 221.004C160.871 221.031 160.871 221.049 160.862 221.067C160.77 221.376 160.413 221.557 160.075 221.457C159.243 221.221 158.419 220.967 157.605 220.704C157.267 220.595 157.084 220.25 157.194 219.951C157.304 219.642 157.66 219.479 157.999 219.588C158.794 219.842 159.599 220.087 160.423 220.314C160.734 220.423 160.926 220.713 160.88 221.004ZM154.834 218.98C154.825 219.025 154.816 219.061 154.797 219.107C154.669 219.406 154.294 219.542 153.974 219.415C153.169 219.098 152.373 218.771 151.596 218.426C151.276 218.281 151.13 217.936 151.276 217.637C151.422 217.346 151.797 217.219 152.117 217.355C152.877 217.691 153.654 218.009 154.441 218.317C154.724 218.444 154.88 218.717 154.834 218.98ZM149.044 216.366C149.035 216.43 149.017 216.493 148.971 216.548C148.806 216.829 148.422 216.929 148.111 216.765C147.343 216.366 146.602 215.958 145.861 215.531C145.559 215.359 145.468 214.987 145.642 214.714C145.824 214.442 146.218 214.36 146.52 214.533C147.233 214.95 147.965 215.35 148.715 215.74C148.971 215.867 149.09 216.121 149.044 216.366ZM143.629 213.126C143.611 213.217 143.584 213.299 143.52 213.371C143.318 213.634 142.916 213.68 142.623 213.489C141.919 212.999 141.224 212.509 140.556 212.001C140.282 211.792 140.236 211.42 140.455 211.166C140.675 210.921 141.077 210.885 141.352 211.093C142.01 211.592 142.678 212.073 143.364 212.545C143.574 212.682 143.666 212.908 143.629 213.126Z" fill="#121314"/>
<g clip-path="url(#clip1_8101_222707)">
<path d="M74.1297 100.812H56.9297V158.052H74.1297V100.812Z" fill="white" stroke="#050505" stroke-width="0.5" stroke-miterlimit="10"/>
<path d="M76.3802 96.71H54.6802V100.81H76.3902V96.71H76.3802Z" fill="white" stroke="#050505" stroke-width="0.5" stroke-miterlimit="10"/>
<path d="M109.35 100.812H92.1504V158.052H109.35V100.812Z" fill="white" stroke="#050505" stroke-width="0.5" stroke-miterlimit="10"/>
<path d="M76.3802 158.05H54.6802V162.15H76.3902V158.05H76.3802Z" fill="white" stroke="#050505" stroke-width="0.5" stroke-miterlimit="10"/>
<path d="M111.6 96.71H89.8999V100.81H111.6V96.71Z" fill="white" stroke="#050505" stroke-width="0.5" stroke-miterlimit="10"/>
<path d="M144.569 100.812H127.369V158.052H144.569V100.812Z" fill="white" stroke="#050505" stroke-width="0.5" stroke-miterlimit="10"/>
<path d="M111.6 158.05H89.8999V162.15H111.6V158.05Z" fill="white" stroke="#050505" stroke-width="0.5" stroke-miterlimit="10"/>
<path d="M146.82 96.71H125.12V100.81H146.83V96.71H146.82Z" fill="white" stroke="#050505" stroke-width="0.5" stroke-miterlimit="10"/>
<path d="M146.82 158.05H125.12V162.15H146.83V158.05H146.82Z" fill="white" stroke="#050505" stroke-width="0.5" stroke-miterlimit="10"/>
<path d="M158.111 162.152H43.3906V168.102H158.111V162.152Z" fill="black"/>
<path d="M161.45 168.1H40.0601V174.05H161.44V168.1H161.45Z" fill="black"/>
<path d="M165.25 174.05H36.25V180H165.25V174.05Z" fill="black"/>
<path d="M158.111 165.128H43.3906V168.108H158.111V165.128Z" fill="white" stroke="#050505" stroke-width="0.5" stroke-miterlimit="10"/>
<path d="M161.451 171.082H40.0605V174.052H161.441V171.082H161.451Z" fill="white" stroke="#050505" stroke-width="0.5" stroke-miterlimit="10"/>
<path d="M165.25 177.03H36.25V180H165.25V177.03Z" fill="white" stroke="#050505" stroke-width="0.5" stroke-miterlimit="10"/>
<path d="M152.14 89.3203H49.3501V96.7103H152.14V89.3203Z" fill="black"/>
<path d="M157.299 82.1714H44.1992V89.3314H157.299V82.1714Z" fill="white" stroke="#050505" stroke-width="0.5" stroke-miterlimit="10"/>
<path d="M44.2002 82.1703L100.75 48.0903L157.3 82.1703H44.2002Z" fill="#879AF9"/>
<path d="M100.749 55.7415L133.699 75.6015H67.7992L100.749 55.7415ZM100.749 48.0815L44.1992 82.1715H157.299L100.749 48.0815Z" fill="#879AF9"/>
<path d="M44.2002 82.1703L100.75 48.0903L157.3 82.1703H44.2002Z" fill="#879AF9"/>
<path d="M100.749 55.7415L133.699 75.6015H67.7992L100.749 55.7415ZM100.749 48.0815L44.1992 82.1715H157.299L100.749 48.0815Z" fill="#C4C4C6" stroke="#020202" stroke-width="0.5" stroke-miterlimit="10"/>
<path d="M100.78 55.7417L133.72 75.6017H67.8301L100.78 55.7417Z" fill="#F2F2F2"/>
<path d="M104.899 68.5184C104.699 68.1084 104.449 67.7684 104.129 67.4784C103.819 67.1884 103.459 66.9584 103.059 66.7684C102.669 66.5784 102.269 66.4184 101.889 66.2784L100.839 65.8984C100.429 65.7284 100.099 65.5584 99.8391 65.3584C99.5791 65.1584 99.4491 64.8684 99.4491 64.4784C99.4491 64.1384 99.5691 63.8684 99.8191 63.6684C100.789 62.9084 102.439 63.2784 102.639 63.3484C102.839 63.4184 103.019 63.4884 103.179 63.5684C103.339 63.6484 103.469 63.7084 103.589 63.7684C103.709 63.8284 103.829 63.8584 103.959 63.8584C104.119 63.8584 104.259 63.8184 104.379 63.7284C104.489 63.6384 104.589 63.5284 104.669 63.4084C104.739 63.2784 104.799 63.1484 104.829 63.0084C104.859 62.8784 104.879 62.7484 104.879 62.6484C104.879 62.3884 104.779 62.1784 104.579 62.0084C104.369 61.8384 104.119 61.6984 103.819 61.5884C103.519 61.4784 103.189 61.3984 102.839 61.3484C102.489 61.2984 102.179 61.2784 101.899 61.2784V60.8184C101.899 60.6984 101.839 60.5984 101.719 60.5084C101.599 60.4184 101.459 60.3784 101.309 60.3784C101.149 60.3784 101.009 60.4184 100.889 60.5084C100.769 60.5984 100.719 60.6984 100.719 60.8184V61.3084C100.279 61.3684 99.8491 61.4784 99.4491 61.6184C99.0391 61.7684 98.6791 61.9784 98.3691 62.2584C98.0591 62.5284 97.7991 62.8684 97.6191 63.2784C97.4291 63.6784 97.3391 64.1584 97.3391 64.7184C97.3391 65.2784 97.4391 65.7484 97.6391 66.1284C97.8491 66.5084 98.1091 66.8284 98.4391 67.0884C98.7691 67.3484 99.1291 67.5684 99.5291 67.7384C99.9291 67.9084 100.329 68.0784 100.729 68.2284L101.779 68.6484C102.149 68.8184 102.459 69.0084 102.709 69.2484C102.959 69.4884 103.089 69.8184 103.089 70.2584C103.089 70.6684 102.969 70.9884 102.719 71.2184C102.469 71.4484 102.159 71.6084 101.779 71.6884C101.439 71.8484 100.429 71.7684 99.7591 71.4284C99.4891 71.2884 99.2591 71.1384 99.0491 70.9884C98.8391 70.8384 98.6591 70.6984 98.4991 70.5784C98.3391 70.4584 98.1691 70.3984 98.0091 70.3984C97.8691 70.3984 97.7391 70.4384 97.6291 70.5184C97.5191 70.5984 97.4091 70.6984 97.3291 70.8284C97.2391 70.9484 97.1691 71.0884 97.1191 71.2284C97.0691 71.3784 97.0391 71.5084 97.0391 71.6284C97.0391 71.8784 97.1291 72.1184 97.3191 72.3684C97.5091 72.6184 97.7591 72.8484 98.0991 73.0584C98.4291 73.2684 98.8191 73.4384 99.2791 73.5784C99.7291 73.7084 100.219 73.7784 100.749 73.7784V74.2784C100.749 74.3984 100.809 74.4984 100.919 74.5884C101.039 74.6784 101.169 74.7184 101.339 74.7184C101.489 74.7184 101.629 74.6784 101.749 74.5884C101.869 74.4984 101.929 74.3984 101.929 74.2784V73.7384C102.909 73.5884 103.699 73.1984 104.319 72.5684C104.929 71.9484 105.239 71.0984 105.239 70.0184C105.199 69.4284 105.099 68.9184 104.899 68.5184Z" fill="#6176FB"/>
<path d="M104.2 67.7489C104 67.3389 103.75 66.9989 103.43 66.7089C103.12 66.4189 102.76 66.1889 102.37 65.9989C101.98 65.8089 101.58 65.6489 101.2 65.5089L100.15 65.1289C99.7398 64.9589 99.4098 64.7889 99.1498 64.5889C98.8898 64.3889 98.7598 64.0989 98.7598 63.7089C98.7598 63.3689 98.8798 63.0989 99.1298 62.8989C100.1 62.1389 101.75 62.5089 101.95 62.5789C102.15 62.6489 102.33 62.7189 102.49 62.7989C102.65 62.8689 102.78 62.9389 102.9 62.9989C103.02 63.0589 103.14 63.0889 103.27 63.0889C103.43 63.0889 103.57 63.0489 103.69 62.9589C103.81 62.8689 103.9 62.7589 103.98 62.6389C104.05 62.5089 104.11 62.3789 104.14 62.2389C104.17 62.1089 104.19 61.9789 104.19 61.8789C104.19 61.6189 104.09 61.4089 103.89 61.2389C103.68 61.0689 103.43 60.9289 103.13 60.8189C102.83 60.7089 102.5 60.6289 102.15 60.5789C101.8 60.5289 101.49 60.5089 101.21 60.5089V60.0489C101.21 59.9289 101.15 59.8289 101.03 59.7389C100.91 59.6489 100.77 59.6089 100.62 59.6089C100.46 59.6089 100.32 59.6489 100.2 59.7389C100.08 59.8289 100.03 59.9289 100.03 60.0489V60.5389C99.5898 60.5989 99.1598 60.7089 98.7498 60.8489C98.3398 60.9989 97.9798 61.2089 97.6698 61.4889C97.3598 61.7589 97.0998 62.0989 96.9198 62.5089C96.7298 62.9089 96.6398 63.3889 96.6398 63.9489C96.6398 64.5089 96.7398 64.9789 96.9398 65.3589C97.1498 65.7389 97.4098 66.0589 97.7398 66.3189C98.0698 66.5789 98.4298 66.7989 98.8298 66.9689C99.2298 67.1389 99.6298 67.3089 100.03 67.4589L101.08 67.8789C101.45 68.0489 101.76 68.2389 102.01 68.4789C102.26 68.7189 102.39 69.0489 102.39 69.4889C102.39 69.8989 102.27 70.2189 102.02 70.4489C101.77 70.6789 101.46 70.8389 101.08 70.9189C100.74 71.0789 99.7298 70.9989 99.0598 70.6589C98.7898 70.5189 98.5598 70.3689 98.3498 70.2189C98.1398 70.0689 97.9598 69.9289 97.7998 69.8089C97.6398 69.6889 97.4698 69.6289 97.3098 69.6289C97.1698 69.6289 97.0398 69.6689 96.9298 69.7489C96.8098 69.8289 96.7098 69.9289 96.6298 70.0589C96.5398 70.1789 96.4698 70.3189 96.4198 70.4689C96.3698 70.6189 96.3398 70.7489 96.3398 70.8689C96.3398 71.1189 96.4298 71.3589 96.6198 71.6089C96.8098 71.8589 97.0598 72.0889 97.3998 72.2989C97.7298 72.5089 98.1198 72.6789 98.5798 72.8189C99.0298 72.9489 99.5198 73.0189 100.05 73.0189V73.5189C100.05 73.6389 100.11 73.7389 100.22 73.8289C100.33 73.9189 100.48 73.9589 100.64 73.9589C100.79 73.9589 100.93 73.9189 101.05 73.8289C101.17 73.7389 101.23 73.6389 101.23 73.5189V72.9789C102.21 72.8289 103 72.4389 103.62 71.8089C104.23 71.1889 104.54 70.3389 104.54 69.2589C104.49 68.6589 104.39 68.1589 104.2 67.7489Z" fill="#FCFCFC"/>
<path d="M100.55 76.5701C111.75 75.6601 120.1 65.9501 119.2 54.8801C118.3 43.8101 108.5 35.5801 97.2999 36.4901C86.0999 37.4001 77.7499 47.1101 78.6499 58.1801C79.5499 69.2501 89.3499 77.4801 100.55 76.5701Z" fill="#121314"/>
<path d="M107.07 73.1117C116.34 68.6417 120.22 57.6017 115.72 48.4417C111.22 39.2817 100.05 35.4817 90.7802 39.9517C81.5102 44.4217 77.6302 55.4617 82.1302 64.6217C86.6302 73.7717 97.8002 77.5817 107.07 73.1117Z" fill="white"/>
<path d="M98.739 39.5387C99.669 38.9187 100.919 39.0087 101.749 39.7587C102.369 40.3287 103.249 40.5287 104.059 40.2987C105.139 39.9887 106.299 40.4587 106.849 41.4287C107.259 42.1587 108.029 42.6187 108.879 42.6487C110.009 42.6887 110.959 43.4887 111.169 44.5787C111.339 45.3987 111.919 46.0787 112.719 46.3587C113.779 46.7387 114.429 47.7887 114.299 48.8887C114.199 49.7187 114.549 50.5387 115.219 51.0587C116.099 51.7387 116.399 52.9387 115.929 53.9587C115.579 54.7187 115.649 55.6087 116.119 56.3087C116.749 57.2287 116.649 58.4587 115.889 59.2787C115.319 59.8987 115.109 60.7687 115.339 61.5687C115.649 62.6387 115.169 63.7787 114.189 64.3287C113.449 64.7387 112.979 65.4987 112.949 66.3387C112.909 67.4487 112.099 68.3887 110.999 68.6087C110.169 68.7787 109.479 69.3587 109.189 70.1487C108.799 71.1987 107.739 71.8387 106.619 71.7187C105.779 71.6187 104.949 71.9687 104.419 72.6287C103.729 73.5087 102.509 73.7987 101.489 73.3387C100.719 72.9887 99.819 73.0687 99.119 73.5287C98.189 74.1487 96.939 74.0587 96.109 73.3087C95.489 72.7387 94.609 72.5387 93.799 72.7687C92.719 73.0787 91.559 72.6087 91.009 71.6387C90.599 70.9087 89.829 70.4487 88.979 70.4187C87.849 70.3787 86.899 69.5787 86.689 68.4887C86.519 67.6687 85.939 66.9887 85.139 66.7087C84.079 66.3287 83.429 65.2787 83.559 64.1787C83.659 63.3487 83.309 62.5287 82.649 62.0087C81.769 61.3287 81.469 60.1287 81.939 59.1087C82.289 58.3487 82.219 57.4587 81.749 56.7587C81.119 55.8387 81.219 54.6087 81.979 53.7887C82.549 53.1687 82.759 52.2987 82.529 51.4987C82.219 50.4287 82.699 49.2887 83.679 48.7387C84.419 48.3287 84.889 47.5687 84.919 46.7287C84.959 45.6187 85.769 44.6787 86.869 44.4587C87.699 44.2887 88.389 43.7087 88.679 42.9187C89.069 41.8687 90.129 41.2287 91.249 41.3587C92.089 41.4587 92.919 41.1087 93.449 40.4487C94.139 39.5687 95.359 39.2787 96.379 39.7387C97.139 40.0787 98.039 40.0087 98.739 39.5387Z" fill="#121314"/>
<path d="M97.54 38.1399L100.52 74.9099C110.74 74.0199 118.34 65.1399 117.52 55.0199C116.7 44.8999 107.77 37.3599 97.54 38.1399Z" fill="white"/>
<path d="M115.929 53.9587C116.399 52.9487 116.109 51.7487 115.219 51.0587C114.549 50.5387 114.209 49.7187 114.299 48.8887C114.429 47.7887 113.779 46.7287 112.719 46.3587C111.929 46.0687 111.339 45.3987 111.169 44.5787C110.949 43.4887 109.999 42.6887 108.879 42.6487C108.029 42.6187 107.259 42.1587 106.849 41.4287C106.299 40.4587 105.149 39.9887 104.059 40.2987C103.239 40.5287 102.369 40.3287 101.749 39.7587C100.919 39.0087 99.679 38.9187 98.739 39.5387C98.419 39.7487 98.059 39.8787 97.689 39.9287L100.379 73.1187C100.749 73.1087 101.129 73.1687 101.479 73.3287C102.499 73.7887 103.709 73.4987 104.409 72.6187C104.929 71.9587 105.769 71.6187 106.609 71.7087C107.729 71.8387 108.789 71.1887 109.179 70.1387C109.469 69.3487 110.159 68.7687 110.989 68.5987C112.089 68.3787 112.899 67.4387 112.939 66.3287C112.969 65.4887 113.439 64.7287 114.179 64.3187C115.159 63.7687 115.639 62.6287 115.329 61.5587C115.099 60.7487 115.309 59.8887 115.879 59.2687C116.639 58.4487 116.739 57.2187 116.109 56.2987C115.639 55.6187 115.569 54.7287 115.929 53.9587Z" fill="#121314"/>
<path d="M100.31 54.08C100.94 54.22 101.57 54.37 102.19 54.55C102.81 54.73 103.38 54.97 103.9 55.29C104.41 55.61 104.84 56.02 105.18 56.52C105.52 57.02 105.72 57.67 105.79 58.47C105.85 59.26 105.78 60 105.57 60.72C105.36 61.43 105.02 62.07 104.55 62.64C104.08 63.21 103.49 63.69 102.77 64.09C102.05 64.48 101.22 64.75 100.27 64.89V66.77C100.28 66.97 100.21 67.15 100.06 67.33C99.92 67.51 99.72 67.61 99.48 67.63L98.31 67.72L98.32 64.99C97.31 64.93 96.35 64.74 95.43 64.41C94.52 64.07 93.73 63.63 93.06 63.09L93.92 61.58C94 61.45 94.1 61.33 94.23 61.24C94.37 61.15 94.51 61.1 94.67 61.08C94.86 61.06 95.06 61.11 95.29 61.23C95.51 61.34 95.77 61.48 96.06 61.63C96.35 61.78 96.67 61.93 97.04 62.08C97.4 62.23 97.83 62.33 98.32 62.37L98.33 56.67C97.71 56.55 97.09 56.4 96.48 56.22C95.87 56.04 95.31 55.78 94.8 55.44C94.3 55.1 93.87 54.66 93.54 54.11C93.2 53.56 93 52.85 92.93 51.99C92.88 51.35 92.96 50.71 93.16 50.08C93.37 49.45 93.7 48.87 94.16 48.35C94.62 47.83 95.2 47.38 95.9 47.01C96.6 46.64 97.42 46.39 98.36 46.27L98.37 44.66C98.37 44.46 98.44 44.27 98.58 44.1C98.72 43.93 98.92 43.83 99.16 43.81L100.33 43.71V46.21C101.25 46.28 102.05 46.47 102.74 46.79C103.43 47.1 104.03 47.47 104.55 47.89L103.88 49.09C103.78 49.27 103.68 49.4 103.57 49.5C103.46 49.59 103.31 49.65 103.15 49.66C103.02 49.67 102.86 49.64 102.68 49.58C102.5 49.51 102.28 49.44 102.05 49.34C101.82 49.24 101.56 49.15 101.27 49.05C100.98 48.96 100.67 48.88 100.33 48.83L100.31 54.08ZM98.37 48.89C97.89 48.99 97.5 49.12 97.18 49.29C96.86 49.46 96.6 49.65 96.4 49.87C96.2 50.09 96.07 50.33 95.99 50.59C95.91 50.85 95.88 51.12 95.91 51.4C95.94 51.72 96.01 52 96.15 52.23C96.28 52.46 96.46 52.66 96.68 52.84C96.9 53.01 97.15 53.16 97.43 53.29C97.72 53.42 98.03 53.53 98.36 53.63L98.37 48.89ZM100.28 62.22C101.18 62.03 101.84 61.67 102.26 61.14C102.68 60.61 102.87 59.96 102.8 59.18C102.77 58.86 102.69 58.58 102.56 58.35C102.43 58.12 102.25 57.92 102.02 57.75C101.79 57.58 101.54 57.44 101.24 57.33C100.95 57.22 100.63 57.12 100.29 57.02L100.28 62.22Z" fill="white"/>
<path d="M123.35 50.6502C123.08 50.6902 122.89 50.9402 122.92 51.2102C122.96 51.4802 123.21 51.6802 123.48 51.6402L123.35 50.6502ZM149.95 67.1402L150.45 67.1002C150.45 67.0802 150.45 67.0602 150.44 67.0402L149.95 67.1402ZM150.11 73.8002C150.32 73.9802 150.64 73.9602 150.82 73.7502L153.75 70.3302C153.93 70.1202 153.9 69.8002 153.7 69.6202C153.49 69.4402 153.17 69.4602 152.99 69.6702L150.39 72.7102L147.35 70.1102C147.14 69.9302 146.82 69.9502 146.64 70.1602C146.46 70.3702 146.49 70.6902 146.69 70.8702L150.11 73.8002ZM124.87 51.4902C125.15 51.4702 125.35 51.2302 125.33 50.9502C125.31 50.6702 125.07 50.4702 124.79 50.4902L124.87 51.4902ZM127.7 50.4102C127.42 50.4102 127.2 50.6302 127.19 50.9002C127.19 51.1802 127.41 51.4002 127.68 51.4102L127.7 50.4102ZM130.49 51.5802C130.76 51.6102 131.01 51.4102 131.04 51.1402C131.07 50.8702 130.87 50.6202 130.6 50.5902L130.49 51.5802ZM133.47 51.0202C133.2 50.9702 132.94 51.1402 132.88 51.4102C132.82 51.6802 133 51.9502 133.27 52.0002L133.47 51.0202ZM135.99 52.6902C136.25 52.7702 136.53 52.6202 136.62 52.3602C136.7 52.1002 136.56 51.8202 136.29 51.7302L135.99 52.6902ZM139.02 52.7602C138.77 52.6502 138.47 52.7602 138.36 53.0102C138.25 53.2602 138.36 53.5602 138.62 53.6702L139.02 52.7602ZM141.09 54.9602C141.33 55.1002 141.63 55.0302 141.78 54.7902C141.92 54.5502 141.85 54.2502 141.62 54.1002L141.09 54.9602ZM143.99 55.8202C143.78 55.6402 143.46 55.6702 143.29 55.8802C143.12 56.0902 143.14 56.4102 143.35 56.5802L143.99 55.8202ZM145.33 58.5302C145.51 58.7402 145.83 58.7602 146.04 58.5802C146.25 58.4002 146.27 58.0802 146.09 57.8702L145.33 58.5302ZM147.82 60.2402C147.67 60.0102 147.37 59.9302 147.13 60.0802C146.89 60.2302 146.82 60.5302 146.97 60.7702L147.82 60.2402ZM148.24 63.2402C148.35 63.4902 148.64 63.6102 148.89 63.5102C149.14 63.4002 149.26 63.1102 149.16 62.8502L148.24 63.2402ZM150.11 65.6202C150.04 65.3502 149.76 65.1902 149.5 65.2702C149.23 65.3402 149.07 65.6202 149.15 65.8802L150.11 65.6202ZM149.57 68.7502C149.59 69.0302 149.83 69.2302 150.11 69.2102C150.39 69.1902 150.59 68.9502 150.57 68.6702L149.57 68.7502ZM123.48 51.6402C123.92 51.5802 124.38 51.5302 124.87 51.4902L124.79 50.4902C124.28 50.5302 123.8 50.5802 123.34 50.6402L123.48 51.6402ZM127.68 51.4102C128.58 51.4202 129.52 51.4802 130.49 51.5802L130.6 50.5902C129.6 50.4802 128.63 50.4302 127.7 50.4102L127.68 51.4102ZM133.27 52.0002C134.17 52.1802 135.08 52.4102 135.99 52.6902L136.29 51.7402C135.35 51.4502 134.41 51.2102 133.47 51.0202L133.27 52.0002ZM138.61 53.6702C139.46 54.0402 140.29 54.4702 141.08 54.9602L141.6 54.1102C140.76 53.6002 139.89 53.1502 139.01 52.7602L138.61 53.6702ZM143.35 56.5802C144.05 57.1702 144.71 57.8102 145.33 58.5202L146.09 57.8602C145.44 57.1102 144.73 56.4202 143.99 55.8002L143.35 56.5802ZM146.97 60.7602C147.44 61.5202 147.87 62.3502 148.24 63.2302L149.16 62.8402C148.77 61.9102 148.32 61.0402 147.82 60.2302L146.97 60.7602ZM149.14 65.8802C149.26 66.3202 149.36 66.7702 149.46 67.2402L150.44 67.0402C150.34 66.5502 150.23 66.0802 150.11 65.6202L149.14 65.8802ZM149.45 67.1802L149.57 68.7502L150.57 68.6702L150.45 67.1002L149.45 67.1802Z" fill="#121314"/>
</g>
<path d="M210.473 67.6914L210.309 84.9073L220.361 93.6378L229.059 83.8274L210.473 67.6914Z" fill="#C7CBD3"/>
<path d="M288.604 93.9479C288.613 93.9479 288.613 93.3126 288.604 93.3126C288.604 93.3035 288.604 93.9479 288.604 93.9479Z" fill="#6176FF"/>
<mask id="mask0_8101_222707" style="mask-type:alpha" maskUnits="userSpaceOnUse" x="54" y="-1" width="272" height="261">
<path d="M273.153 85.4001C274.535 49.8248 260.888 25.7751 256.909 18.8597C246.079 5.53711 233.969 1.88882 222.142 0.209882C202.157 -2.6307 164.93 -0.806557 139.667 14.6397C90.842 44.4794 71.4693 65.1167 67.829 86.589C62.9904 115.185 46.6087 152.775 59.6976 176.644C69.8595 195.166 76.2988 214.669 84.5582 228.809C92.8268 242.948 112.876 247.35 145.411 235.243C177.946 223.137 187.01 229.88 190.33 231.323C197.959 234.644 211.633 251.769 218.539 254.855C250.104 267.515 280.077 252.396 286.873 248.956C307.947 238.292 318.585 218.426 322.344 205.739C331.39 174.538 316.719 155.171 312.411 147.621C308.094 140.07 290.688 125.731 282.949 116.955C276.757 109.94 273.839 92.9962 273.153 85.4001Z" fill="#F2F2F2"/>
</mask>
<g mask="url(#mask0_8101_222707)">
<path d="M288.53 115.556L288.155 154.272L275.322 178.739L274.481 265.209L221.375 264.619L222.217 178.149C215.256 178.067 209.667 172.432 209.74 165.543L210.234 114.694L288.53 115.556Z" fill="white" stroke="#050505" stroke-width="0.3" stroke-miterlimit="10"/>
<path d="M248.953 115.12L247.499 264.899L274.472 265.199L275.314 178.729L288.146 154.262L288.521 115.546L248.953 115.12Z" fill="#F2F2F2"/>
</g>
<path d="M289.994 150.758L288.155 154.262L276.951 175.616L275.323 178.72C267.502 172.258 264.191 164.916 263.212 157.483C262.215 149.987 263.459 142.337 266.862 135.575C272.981 123.405 282.302 120.601 282.302 120.601L281.113 115.455L277.262 98.7658C277.125 98.1487 277.051 97.5316 277.061 96.9145C277.079 94.5549 278.176 92.286 280.079 90.7704C281.021 90.0353 282.055 89.5362 283.125 89.2639C286.994 88.302 291.265 90.3258 292.701 94.3824L293.826 97.5679C300 115.101 298.619 134.332 289.994 150.758Z" fill="white" stroke="#050505" stroke-width="0.3" stroke-miterlimit="10"/>
<path d="M289.992 150.761L288.154 154.264L276.949 175.627C273.583 170.99 271.9 166.08 271.242 161.125C270.245 153.629 271.489 145.969 274.891 139.217C281.01 127.047 290.331 124.243 290.331 124.243L289.142 119.097L283.123 89.2756C286.992 88.3136 291.264 90.3374 292.7 94.4032L293.825 97.5886C299.999 115.095 298.618 134.335 289.992 150.761Z" fill="#F2F2F2"/>
<path d="M220.361 93.6381L191.878 68.9078C189.134 66.53 188.86 62.4008 191.256 59.6872C193.653 56.9737 197.824 56.7105 200.568 59.0883L229.05 83.8186L220.361 93.6381Z" fill="white" stroke="#050505" stroke-width="0.3" stroke-miterlimit="10"/>
<path d="M270.056 147.82H221.843C214.947 147.82 209.312 142.238 209.312 135.414V23.6872C209.312 16.8626 214.956 11.2812 221.843 11.2812H270.065C276.952 11.2812 282.596 16.8626 282.596 23.6872V135.423C282.596 142.238 276.952 147.82 270.056 147.82Z" fill="#121314"/>
<path d="M278.965 21.735V136.447C278.965 140.341 275.772 143.526 271.867 143.526H220.042C216.136 143.526 212.953 140.341 212.953 136.447V21.735C212.953 17.8417 216.145 14.6562 220.042 14.6562H271.867C275.763 14.6653 278.965 17.8417 278.965 21.735Z" fill="white"/>
<path d="M232.454 24.0594V27.9436H231.813V25.4297C231.813 25.3299 231.822 25.221 231.832 25.103L230.642 27.3083C230.588 27.4172 230.496 27.4626 230.386 27.4626H230.286C230.167 27.4626 230.085 27.4082 230.03 27.3083L228.831 25.094C228.841 25.1575 228.841 25.2119 228.841 25.2664C228.841 25.3208 228.85 25.3753 228.85 25.4207V27.9345H228.209V24.0503H228.758C228.795 24.0503 228.822 24.0503 228.841 24.0503C228.859 24.0503 228.886 24.0594 228.905 24.0594C228.923 24.0684 228.941 24.0775 228.959 24.0957C228.978 24.1138 228.987 24.132 229.005 24.1592L230.185 26.3191C230.213 26.3736 230.249 26.4371 230.267 26.5006C230.295 26.5642 230.322 26.6277 230.341 26.6912C230.368 26.6277 230.396 26.5642 230.423 26.5006C230.45 26.4371 230.478 26.3827 230.505 26.3191L231.667 24.1683C231.676 24.141 231.694 24.1229 231.713 24.1047C231.731 24.0866 231.749 24.0775 231.768 24.0684C231.786 24.0594 231.813 24.0594 231.832 24.0594C231.85 24.0594 231.886 24.0594 231.914 24.0594H232.454Z" fill="#121314"/>
<path d="M235.014 26.4476V27.9541H234.282V26.4476L232.846 24.0698H233.486C233.55 24.0698 233.596 24.088 233.642 24.1152C233.679 24.1424 233.706 24.1878 233.733 24.2332L234.456 25.531C234.493 25.6036 234.529 25.6852 234.566 25.7488C234.602 25.8214 234.63 25.8849 234.648 25.9575C234.666 25.8849 234.694 25.8214 234.73 25.7488C234.758 25.6762 234.794 25.6036 234.831 25.531L235.544 24.2332C235.563 24.1969 235.59 24.1606 235.636 24.1243C235.673 24.088 235.727 24.0698 235.791 24.0698H236.441L235.014 26.4476Z" fill="#121314"/>
<path d="M241.124 27.9541H240.557C240.493 27.9541 240.438 27.9359 240.401 27.9087C240.365 27.8724 240.328 27.8361 240.31 27.7907L240.017 27.0012H238.389L238.096 27.7907C238.087 27.8361 238.06 27.8724 238.014 27.8996C237.968 27.9359 237.923 27.9541 237.859 27.9541H237.292L238.837 24.0698H239.587L241.124 27.9541ZM239.843 26.4839L239.368 25.1952C239.35 25.1407 239.322 25.0681 239.295 24.9864C239.267 24.9048 239.249 24.8231 239.221 24.7323C239.194 24.8231 239.176 24.9138 239.148 24.9864C239.121 25.0681 239.103 25.1407 239.075 25.1952L238.599 26.4839H239.843Z" fill="#121314"/>
<path d="M244.114 27.0399C244.151 27.0399 244.187 27.058 244.215 27.0852L244.498 27.3938C244.343 27.5844 244.142 27.7387 243.913 27.8385C243.684 27.9383 243.401 27.9928 243.072 27.9928C242.779 27.9928 242.514 27.9474 242.285 27.8476C242.056 27.7477 241.855 27.6116 241.69 27.4392C241.526 27.2668 241.398 27.058 241.315 26.813C241.224 26.568 241.178 26.3048 241.178 26.0144C241.178 25.7239 241.224 25.4517 241.315 25.2067C241.407 24.9616 241.544 24.7529 241.709 24.5805C241.883 24.408 242.084 24.2719 242.322 24.1721C242.559 24.0722 242.825 24.0269 243.108 24.0269C243.392 24.0269 243.648 24.0722 243.867 24.163C244.087 24.2537 244.279 24.3808 244.434 24.526L244.187 24.8618C244.178 24.8799 244.151 24.9072 244.133 24.9162C244.114 24.9344 244.078 24.9435 244.041 24.9435C244.014 24.9435 243.986 24.9344 243.959 24.9253C243.931 24.9072 243.895 24.889 243.867 24.8709C243.831 24.8436 243.794 24.8255 243.748 24.7983C243.703 24.771 243.657 24.7438 243.593 24.7257C243.529 24.7075 243.465 24.6803 243.383 24.6712C243.3 24.6531 243.209 24.6531 243.108 24.6531C242.934 24.6531 242.77 24.6803 242.623 24.7438C242.477 24.8073 242.349 24.8981 242.248 25.0161C242.139 25.134 242.056 25.2793 242.001 25.4426C241.947 25.615 241.91 25.8056 241.91 26.0234C241.91 26.2412 241.937 26.4318 242.001 26.6043C242.065 26.7767 242.148 26.9219 242.258 27.0308C242.367 27.1488 242.486 27.2395 242.633 27.294C242.779 27.3575 242.934 27.3847 243.099 27.3847C243.2 27.3847 243.291 27.3757 243.373 27.3666C243.456 27.3575 243.529 27.3394 243.593 27.3121C243.666 27.2849 243.721 27.2577 243.785 27.2214C243.849 27.1851 243.904 27.1397 243.968 27.0852C243.986 27.0671 244.005 27.058 244.023 27.0489C244.078 27.0399 244.096 27.0399 244.114 27.0399Z" fill="#121314"/>
<path d="M247.627 27.0399C247.663 27.0399 247.7 27.058 247.727 27.0852L248.011 27.3938C247.846 27.5844 247.654 27.7387 247.425 27.8385C247.197 27.9383 246.913 27.9928 246.584 27.9928C246.291 27.9928 246.026 27.9474 245.797 27.8476C245.569 27.7477 245.367 27.6116 245.203 27.4392C245.038 27.2668 244.91 27.058 244.828 26.813C244.736 26.568 244.7 26.3048 244.7 26.0144C244.7 25.7239 244.745 25.4517 244.837 25.2067C244.928 24.9616 245.066 24.7529 245.23 24.5805C245.404 24.408 245.605 24.2719 245.843 24.1721C246.081 24.0722 246.346 24.0269 246.63 24.0269C246.913 24.0269 247.169 24.0722 247.389 24.163C247.608 24.2537 247.8 24.3808 247.956 24.526L247.709 24.8618C247.7 24.8799 247.672 24.9072 247.654 24.9162C247.636 24.9344 247.599 24.9435 247.563 24.9435C247.535 24.9435 247.508 24.9344 247.48 24.9253C247.453 24.9072 247.416 24.889 247.389 24.8709C247.352 24.8527 247.316 24.8255 247.27 24.7983C247.224 24.771 247.169 24.7438 247.114 24.7257C247.05 24.7075 246.986 24.6803 246.904 24.6712C246.822 24.6531 246.73 24.6531 246.63 24.6531C246.456 24.6531 246.291 24.6803 246.145 24.7438C245.999 24.8073 245.87 24.8981 245.77 25.0161C245.669 25.134 245.587 25.2793 245.523 25.4426C245.468 25.615 245.431 25.8056 245.431 26.0234C245.431 26.2412 245.459 26.4318 245.523 26.6043C245.587 26.7767 245.669 26.9219 245.779 27.0308C245.889 27.1488 246.008 27.2395 246.154 27.294C246.3 27.3575 246.456 27.3847 246.621 27.3847C246.721 27.3847 246.813 27.3757 246.895 27.3666C246.977 27.3575 247.05 27.3394 247.114 27.3121C247.188 27.2849 247.252 27.2577 247.307 27.2214C247.371 27.1851 247.425 27.1397 247.489 27.0852C247.508 27.0671 247.526 27.058 247.544 27.0489C247.581 27.0399 247.599 27.0399 247.627 27.0399Z" fill="#121314"/>
<path d="M252.183 26.0117C252.183 26.293 252.137 26.5562 252.037 26.8013C251.945 27.0463 251.808 27.255 251.634 27.4365C251.46 27.618 251.25 27.7542 251.012 27.854C250.765 27.9538 250.491 28.0083 250.198 28.0083C249.896 28.0083 249.631 27.9629 249.384 27.854C249.137 27.7542 248.927 27.618 248.753 27.4365C248.579 27.255 248.442 27.0463 248.35 26.8013C248.25 26.5562 248.204 26.293 248.204 26.0117C248.204 25.7304 248.25 25.4581 248.35 25.2222C248.451 24.9771 248.579 24.7684 248.753 24.5869C248.927 24.4054 249.137 24.2692 249.384 24.1694C249.631 24.0696 249.905 24.0151 250.198 24.0151C250.399 24.0151 250.582 24.0333 250.765 24.0877C250.939 24.1331 251.104 24.1966 251.25 24.2783C251.396 24.36 251.524 24.4598 251.643 24.5778C251.762 24.6958 251.863 24.8319 251.945 24.9771C252.027 25.1223 252.091 25.2857 252.128 25.4581C252.165 25.6396 252.183 25.8211 252.183 26.0117ZM251.433 26.0117C251.433 25.803 251.405 25.6033 251.341 25.44C251.287 25.2675 251.204 25.1223 251.094 25.0043C250.985 24.8864 250.857 24.7956 250.71 24.7321C250.555 24.6686 250.381 24.6413 250.189 24.6413C249.997 24.6413 249.823 24.6686 249.677 24.7321C249.521 24.7956 249.393 24.8864 249.283 25.0043C249.174 25.1223 249.091 25.2675 249.036 25.44C248.982 25.6124 248.945 25.803 248.945 26.0117C248.945 26.2204 248.972 26.4201 249.036 26.5835C249.091 26.7559 249.174 26.9011 249.283 27.01C249.393 27.128 249.521 27.2187 249.677 27.2823C249.832 27.3458 250.006 27.373 250.189 27.373C250.381 27.373 250.555 27.3458 250.71 27.2823C250.866 27.2187 250.994 27.128 251.094 27.01C251.204 26.892 251.287 26.7468 251.341 26.5835C251.405 26.4201 251.433 26.2204 251.433 26.0117Z" fill="#121314"/>
<path d="M254.415 27.3745C254.552 27.3745 254.68 27.3564 254.79 27.3019C254.9 27.2565 254.991 27.193 255.074 27.1023C255.147 27.0206 255.211 26.9207 255.247 26.7937C255.293 26.6757 255.311 26.5396 255.311 26.3853V24.062H256.043V26.3853C256.043 26.6213 256.006 26.83 255.933 27.0296C255.86 27.2293 255.75 27.3927 255.613 27.5379C255.476 27.6831 255.302 27.792 255.101 27.8737C254.9 27.9553 254.671 27.9916 254.424 27.9916C254.168 27.9916 253.949 27.9463 253.747 27.8737C253.546 27.792 253.372 27.6831 253.235 27.5379C253.098 27.3927 252.988 27.2293 252.915 27.0296C252.842 26.83 252.805 26.6213 252.805 26.3853V24.062H253.537V26.3853C253.537 26.5305 253.555 26.6666 253.601 26.7937C253.647 26.9117 253.702 27.0115 253.775 27.1023C253.857 27.1839 253.948 27.2565 254.058 27.3019C254.141 27.3473 254.269 27.3745 254.415 27.3745Z" fill="#121314"/>
<path d="M260.177 24.0594V27.9436H259.802C259.748 27.9436 259.693 27.9345 259.656 27.9164C259.619 27.8982 259.583 27.871 259.546 27.8166L257.497 25.221C257.507 25.339 257.516 25.4479 257.516 25.5477V27.9345H256.875V24.0503H257.26C257.287 24.0503 257.315 24.0503 257.342 24.0503C257.36 24.0503 257.388 24.0594 257.406 24.0684C257.424 24.0775 257.443 24.0866 257.452 24.1047C257.47 24.1229 257.488 24.141 257.507 24.1683L259.565 26.7729C259.555 26.7094 259.555 26.6458 259.546 26.5914C259.546 26.5279 259.537 26.4734 259.537 26.419V24.0594H260.177Z" fill="#121314"/>
<path d="M263.791 24.6597H262.602V27.9541H261.87V24.6597H260.69V24.0698H263.791V24.6597Z" fill="#121314"/>
<path d="M268.409 61.5327L223.417 61.3239C220.453 61.3149 218.066 58.928 218.084 55.9967L218.157 41.0133C218.166 38.082 220.581 35.7224 223.536 35.7315L268.528 35.9402C271.482 35.9493 273.879 38.3361 273.86 41.2674L273.787 56.2508C273.778 59.1822 271.373 61.5417 268.409 61.5327Z" fill="white" stroke="#050505" stroke-width="0.5" stroke-miterlimit="10"/>
<path opacity="0.4" d="M225.978 47.3115L263.506 47.493C264.019 47.493 264.439 47.0847 264.439 46.5764C264.439 46.0682 264.028 45.6598 263.515 45.6507L225.987 45.4692C225.474 45.4692 225.054 45.8776 225.054 46.3859C225.054 46.8941 225.474 47.3025 225.978 47.3115Z" fill="white" stroke="#050505" stroke-width="0.5" stroke-miterlimit="10"/>
<path opacity="0.4" d="M225.959 51.4317L263.488 51.6132C264 51.6132 264.421 51.2048 264.421 50.6965C264.421 50.1883 264.01 49.7799 263.497 49.7709L225.969 49.5894C225.456 49.5894 225.036 49.9977 225.036 50.506C225.036 51.0142 225.447 51.4226 225.959 51.4317Z" fill="white" stroke="#050505" stroke-width="0.5" stroke-miterlimit="10"/>
<path opacity="0.4" d="M225.941 55.543L263.47 55.7245C263.982 55.7245 264.403 55.3161 264.403 54.8079C264.403 54.2997 263.991 53.8913 263.479 53.8822L225.95 53.7007C225.438 53.7007 225.017 54.1091 225.017 54.6173C225.008 55.1255 225.429 55.543 225.941 55.543Z" fill="white" stroke="#050505" stroke-width="0.5" stroke-miterlimit="10"/>
<path d="M226.078 42.3487H225.52L225.501 39.3901H226.059L226.078 42.3487Z" fill="#121314"/>
<path d="M229.078 42.3323H228.575C228.483 42.3323 228.41 42.296 228.364 42.2234L227.733 41.2796C227.706 41.2433 227.687 41.216 227.651 41.207C227.623 41.1979 227.587 41.1888 227.532 41.1888H227.294L227.303 42.3504H226.745L226.727 39.3919L227.642 39.3828C227.843 39.3828 228.017 39.401 228.163 39.4463C228.309 39.4917 228.428 39.5462 228.52 39.6188C228.611 39.6914 228.684 39.7821 228.73 39.882C228.776 39.9818 228.803 40.0998 228.803 40.2268C228.803 40.3266 228.785 40.4174 228.758 40.5082C228.73 40.5989 228.684 40.6806 228.63 40.7532C228.575 40.8258 228.511 40.8893 228.419 40.9438C228.337 40.9982 228.245 41.0436 228.145 41.0708C228.181 41.089 228.218 41.1162 228.245 41.1434C228.273 41.1707 228.3 41.207 228.328 41.2433L229.078 42.3323ZM227.642 40.7895C227.751 40.7895 227.834 40.7713 227.916 40.7441C227.989 40.7169 228.053 40.6806 228.108 40.6352C228.163 40.5898 228.2 40.5354 228.218 40.4719C228.245 40.4083 228.255 40.3448 228.255 40.2631C228.255 40.1088 228.2 39.9999 228.099 39.9183C227.998 39.8366 227.843 39.8003 227.642 39.8003H227.285L227.294 40.7804L227.642 40.7895Z" fill="#121314"/>
<path d="M231.968 42.3216H231.538C231.492 42.3216 231.447 42.3125 231.419 42.2853C231.392 42.258 231.364 42.2308 231.346 42.1945L231.117 41.5865L229.883 41.5955L229.663 42.2036C229.654 42.2308 229.627 42.2671 229.599 42.2943C229.572 42.3216 229.526 42.3306 229.48 42.3397H229.05L230.212 39.3721H230.779L231.968 42.3216ZM230.98 41.2053L230.614 40.2252C230.596 40.1798 230.578 40.1253 230.559 40.0709C230.541 40.0073 230.523 39.9438 230.505 39.8803C230.486 39.9529 230.468 40.0164 230.45 40.0799C230.431 40.1435 230.413 40.1979 230.395 40.2342L230.038 41.2144L230.98 41.2053Z" fill="#121314"/>
<path d="M235.481 42.2942H234.978C234.886 42.2942 234.813 42.2579 234.767 42.1853L234.136 41.2415C234.109 41.2052 234.09 41.1779 234.063 41.1689C234.035 41.1507 233.99 41.1507 233.935 41.1507H233.697L233.706 42.3124H233.148L233.13 39.3538L234.045 39.3447C234.246 39.3447 234.42 39.3629 234.566 39.4083C234.712 39.4536 234.831 39.5081 234.923 39.5807C235.014 39.6533 235.087 39.744 235.133 39.8529C235.179 39.9528 235.206 40.0708 235.206 40.1978C235.206 40.2976 235.188 40.3884 235.16 40.4791C235.133 40.5699 235.087 40.6516 235.032 40.7242C234.978 40.7968 234.913 40.8603 234.822 40.9148C234.74 40.9692 234.648 41.0146 234.548 41.0418C234.584 41.06 234.621 41.0872 234.648 41.1144C234.676 41.1416 234.703 41.1779 234.731 41.2142L235.481 42.2942ZM234.045 40.7514C234.145 40.7514 234.237 40.7333 234.319 40.706C234.392 40.6788 234.456 40.6425 234.511 40.5971C234.557 40.5517 234.602 40.4973 234.621 40.4338C234.648 40.3702 234.657 40.3067 234.657 40.225C234.657 40.0708 234.602 39.9618 234.502 39.8802C234.401 39.7985 234.246 39.7622 234.045 39.7622H233.688L233.697 40.7423L234.045 40.7514Z" fill="#121314"/>
<path d="M236.514 40.1528C236.67 40.1528 236.816 40.1801 236.944 40.2254C237.072 40.2708 237.182 40.3434 237.282 40.4342C237.374 40.5249 237.447 40.6429 237.502 40.77C237.548 40.9061 237.575 41.0513 237.575 41.2146C237.575 41.378 237.557 41.5323 237.502 41.6684C237.447 41.8045 237.383 41.9134 237.292 42.0133C237.2 42.1131 237.09 42.1766 236.962 42.2311C236.834 42.2855 236.688 42.3037 236.532 42.3128C236.368 42.3128 236.23 42.2855 236.102 42.2402C235.974 42.1948 235.865 42.1222 235.773 42.0224C235.682 41.9316 235.609 41.8136 235.554 41.6775C235.499 41.5414 235.48 41.3962 235.48 41.2237C235.48 41.0604 235.499 40.9061 235.554 40.779C235.599 40.6429 235.673 40.534 235.764 40.4342C235.855 40.3434 235.965 40.2708 236.093 40.2164C236.212 40.1801 236.359 40.1528 236.514 40.1528ZM236.532 41.9316C236.706 41.9316 236.834 41.8681 236.926 41.7501C237.008 41.6321 237.054 41.4597 237.054 41.2328C237.054 41.0059 237.008 40.8335 236.926 40.7155C236.843 40.5975 236.706 40.534 236.532 40.5431C236.349 40.5431 236.221 40.6066 236.139 40.7246C236.057 40.8426 236.011 41.015 236.011 41.2419C236.011 41.4688 236.057 41.6412 236.148 41.7592C236.212 41.8771 236.349 41.9316 236.532 41.9316Z" fill="#121314"/>
<path d="M238.635 42.3153C238.452 42.3153 238.306 42.27 238.205 42.1611C238.104 42.0612 238.059 41.916 238.049 41.7345L238.04 40.5638H237.821C237.793 40.5638 237.766 40.5547 237.748 40.5366C237.729 40.5184 237.72 40.4912 237.72 40.4549V40.2552L238.059 40.2008L238.159 39.629C238.168 39.6018 238.178 39.5837 238.196 39.5655C238.214 39.5474 238.242 39.5474 238.269 39.5474H238.534L238.543 40.2099H239.111V40.5729H238.543L238.553 41.7164C238.553 41.7799 238.571 41.8344 238.598 41.8707C238.635 41.907 238.681 41.9251 238.735 41.9251C238.772 41.9251 238.79 41.916 238.818 41.916C238.836 41.907 238.854 41.8979 238.873 41.8888C238.891 41.8797 238.9 41.8707 238.909 41.8616C238.928 41.8525 238.937 41.8525 238.946 41.8525C238.955 41.8525 238.973 41.8525 238.982 41.8616C238.992 41.8707 239.001 41.8797 239.01 41.8979L239.165 42.1429C239.092 42.2064 239.01 42.2518 238.909 42.2881C238.836 42.2972 238.735 42.3153 238.635 42.3153Z" fill="#121314"/>
<path d="M239.972 40.3887C240.054 40.3161 240.145 40.2526 240.246 40.1981C240.347 40.1527 240.466 40.1255 240.594 40.1255C240.713 40.1255 240.813 40.1437 240.905 40.18C240.996 40.2163 241.069 40.2707 241.133 40.3433C241.197 40.4159 241.243 40.4976 241.271 40.5974C241.298 40.6973 241.316 40.8062 241.316 40.9241L241.325 42.2582H240.813L240.804 40.9151C240.804 40.788 240.777 40.6882 240.713 40.6156C240.649 40.543 240.557 40.5157 240.447 40.5157C240.356 40.5157 240.274 40.5339 240.2 40.5793C240.127 40.6247 240.054 40.6791 239.981 40.7426L239.99 42.2673H239.478L239.459 39.2271H239.972V40.3887Z" fill="#121314"/>
<path d="M268.776 94.8731L223.783 94.8459C220.82 94.8459 218.433 92.4681 218.433 89.5368L218.442 74.5534C218.442 71.6221 220.847 69.2534 223.802 69.2534L268.794 69.2806C271.749 69.2806 274.145 71.6584 274.145 74.5897L274.136 89.5731C274.136 92.5044 271.73 94.8822 268.776 94.8731Z" fill="white" stroke="#050505" stroke-width="0.5" stroke-miterlimit="10"/>
<path opacity="0.4" d="M226.281 80.8244L263.81 80.8517C264.322 80.8517 264.743 80.4433 264.743 79.9351C264.743 79.4268 264.332 79.0184 263.819 79.0184L226.291 78.9912C225.778 78.9912 225.358 79.4087 225.358 79.9078C225.348 80.416 225.769 80.8244 226.281 80.8244Z" fill="white" stroke="#050505" stroke-width="0.5" stroke-miterlimit="10"/>
<path opacity="0.4" d="M226.28 84.9445L263.809 84.9718C264.321 84.9718 264.742 84.5634 264.742 84.0552C264.742 83.5469 264.321 83.1386 263.818 83.1386L226.299 83.1113C225.787 83.1113 225.366 83.5197 225.366 84.0279C225.348 84.5361 225.768 84.9445 226.28 84.9445Z" fill="white" stroke="#050505" stroke-width="0.5" stroke-miterlimit="10"/>
<path opacity="0.4" d="M226.271 89.0632L263.8 89.0904C264.312 89.0904 264.733 88.682 264.733 88.1738C264.733 87.6656 264.312 87.2572 263.809 87.2572L226.281 87.23C225.768 87.23 225.348 87.6384 225.348 88.1466C225.348 88.6457 225.759 89.0632 226.271 89.0632Z" fill="white" stroke="#050505" stroke-width="0.5" stroke-miterlimit="10"/>
<path d="M226.446 75.8721L225.888 75.8812L225.86 72.9227L226.418 72.9136L226.446 75.8721Z" fill="#121314"/>
<path d="M229.456 75.8449L228.953 75.854C228.861 75.854 228.788 75.8177 228.742 75.7451L228.102 74.8013C228.075 74.765 228.056 74.7377 228.029 74.7286C228.002 74.7196 227.965 74.7105 227.901 74.7105H227.663L227.672 75.8721L227.114 75.8812L227.087 72.9227L228.002 72.9136C228.203 72.9136 228.377 72.9317 228.523 72.968C228.669 73.0043 228.788 73.0679 228.88 73.1405C228.971 73.2131 229.044 73.3038 229.09 73.4036C229.136 73.5035 229.154 73.6215 229.154 73.7485C229.154 73.8483 229.145 73.9391 229.117 74.0298C229.09 74.1206 229.044 74.2023 228.989 74.2749C228.935 74.3475 228.861 74.411 228.788 74.4655C228.706 74.5199 228.614 74.5653 228.514 74.5925C228.55 74.6107 228.587 74.6379 228.614 74.6651C228.642 74.6923 228.669 74.7286 228.697 74.765L229.456 75.8449ZM228.002 74.3021C228.111 74.3021 228.194 74.284 228.276 74.2658C228.349 74.2386 228.413 74.2023 228.468 74.1569C228.514 74.1115 228.56 74.0571 228.578 73.9935C228.605 73.93 228.614 73.8665 228.614 73.7848C228.614 73.6305 228.56 73.5216 228.459 73.4399C228.358 73.3583 228.203 73.322 228.002 73.322H227.645L227.654 74.3021H228.002Z" fill="#121314"/>
<path d="M232.346 75.8071L231.916 75.8162C231.87 75.8162 231.824 75.8071 231.797 75.7799C231.769 75.7527 231.742 75.7254 231.724 75.6891L231.495 75.0902L230.26 75.0992L230.041 75.7073C230.031 75.7345 230.013 75.7708 229.977 75.798C229.949 75.8253 229.903 75.8434 229.858 75.8434L229.428 75.8525L230.571 72.8758L231.138 72.8667L232.346 75.8071ZM231.349 74.6999L230.974 73.7198C230.955 73.6744 230.937 73.62 230.919 73.5655C230.9 73.502 230.882 73.4384 230.855 73.3749C230.836 73.4475 230.818 73.511 230.8 73.5746C230.781 73.6381 230.763 73.6926 230.745 73.7289L230.397 74.7181L231.349 74.6999Z" fill="#121314"/>
<path d="M235.456 73.2658L234.55 73.2748L234.578 75.7887L234.02 75.7978L233.992 73.2839L233.096 73.293L233.087 72.8392L235.447 72.812L235.456 73.2658Z" fill="#121314"/>
<path d="M235.84 74.0373C235.904 73.9102 235.986 73.8104 236.068 73.7378C236.16 73.6652 236.27 73.6289 236.388 73.6289C236.48 73.6289 236.562 73.6471 236.626 73.6924L236.599 74.0736C236.59 74.1008 236.58 74.1099 236.571 74.1281C236.562 74.1462 236.544 74.1462 236.516 74.1462C236.498 74.1462 236.462 74.1462 236.425 74.1371C236.388 74.1281 236.343 74.1281 236.306 74.1281C236.251 74.1281 236.196 74.1371 236.151 74.1553C236.105 74.1734 236.068 74.1916 236.032 74.2279C235.995 74.2551 235.968 74.3005 235.94 74.3368C235.913 74.3822 235.885 74.4275 235.867 74.4911L235.876 75.7888L235.364 75.7979L235.346 73.6924H235.648C235.702 73.6924 235.739 73.7015 235.757 73.7197C235.776 73.7378 235.794 73.7741 235.794 73.8195L235.84 74.0373Z" fill="#121314"/>
<path d="M236.827 73.9537C237.074 73.7269 237.367 73.618 237.706 73.6089C237.834 73.6089 237.943 73.627 238.044 73.6633C238.145 73.6996 238.227 73.7632 238.291 73.8267C238.364 73.8993 238.41 73.981 238.446 74.0808C238.483 74.1806 238.501 74.2895 238.501 74.4075L238.51 75.7325H238.282C238.236 75.7325 238.199 75.7234 238.172 75.7144C238.145 75.7053 238.126 75.669 238.108 75.6236L238.062 75.4693C238.007 75.5147 237.952 75.5601 237.907 75.5964C237.861 75.6327 237.806 75.6599 237.751 75.6871C237.696 75.7144 237.641 75.7325 237.577 75.7416C237.513 75.7507 237.44 75.7597 237.367 75.7597C237.276 75.7597 237.193 75.7507 237.12 75.7234C237.047 75.7053 236.983 75.669 236.919 75.6145C236.864 75.5692 236.818 75.5056 236.791 75.4421C236.763 75.3695 236.745 75.2878 236.745 75.1971C236.745 75.1426 236.754 75.0882 236.773 75.0337C236.791 74.9793 236.818 74.9339 236.855 74.8794C236.901 74.8341 236.946 74.7887 237.01 74.7433C237.074 74.6979 237.157 74.6616 237.248 74.6344C237.34 74.5981 237.449 74.5709 237.577 74.5527C237.706 74.5346 237.843 74.5164 238.007 74.5164V74.3894C238.007 74.2532 237.971 74.1443 237.916 74.0808C237.852 74.0173 237.77 73.981 237.651 73.981C237.568 73.981 237.495 73.9901 237.449 74.0082C237.395 74.0264 237.349 74.0445 237.303 74.0717C237.266 74.099 237.23 74.1171 237.193 74.1353C237.157 74.1534 237.12 74.1625 237.084 74.1625C237.047 74.1625 237.02 74.1534 236.992 74.1353C236.965 74.1171 236.946 74.099 236.928 74.0717L236.827 73.9537ZM238.007 74.8522C237.861 74.8613 237.733 74.8704 237.632 74.8885C237.532 74.9067 237.449 74.9339 237.395 74.9611C237.33 74.9883 237.294 75.0246 237.266 75.0609C237.239 75.0972 237.23 75.1426 237.23 75.188C237.23 75.2787 237.257 75.3423 237.312 75.3786C237.367 75.4149 237.44 75.433 237.523 75.433C237.623 75.433 237.715 75.4149 237.788 75.3695C237.87 75.3332 237.943 75.2697 238.017 75.1971L238.007 74.8522Z" fill="#121314"/>
<path d="M240.806 72.6768L240.843 75.7171H240.532C240.468 75.7171 240.422 75.6899 240.404 75.6263L240.358 75.4267C240.276 75.5265 240.175 75.5991 240.065 75.6626C239.955 75.7262 239.827 75.7534 239.681 75.7534C239.562 75.7534 239.461 75.7352 239.361 75.6899C239.26 75.6445 239.178 75.5719 239.114 75.4811C239.041 75.3904 238.986 75.2815 238.949 75.1453C238.913 75.0092 238.885 74.8549 238.885 74.6825C238.885 74.5282 238.904 74.383 238.949 74.2469C238.995 74.1108 239.05 73.9928 239.132 73.8929C239.215 73.7931 239.306 73.7114 239.416 73.657C239.526 73.6025 239.654 73.5753 239.791 73.5662C239.91 73.5662 240.01 73.5844 240.093 73.6207C240.175 73.657 240.257 73.7024 240.321 73.7659L240.312 72.6587L240.806 72.6768ZM240.312 74.1652C240.257 74.1017 240.193 74.0472 240.12 74.02C240.047 73.9928 239.974 73.9837 239.901 73.9837C239.827 73.9837 239.754 74.0018 239.69 74.0291C239.626 74.0563 239.571 74.1017 239.535 74.1561C239.489 74.2106 239.461 74.2923 239.434 74.3739C239.416 74.4647 239.397 74.5736 239.397 74.6916C239.397 74.8186 239.407 74.9185 239.434 75.0001C239.452 75.0818 239.48 75.1544 239.526 75.2089C239.562 75.2633 239.608 75.2996 239.663 75.3269C239.718 75.345 239.772 75.3632 239.846 75.3632C239.955 75.3632 240.038 75.3359 240.12 75.2905C240.193 75.2452 240.266 75.1816 240.33 75.1L240.312 74.1652Z" fill="#121314"/>
<path d="M241.921 72.9956C241.921 73.041 241.912 73.0773 241.894 73.1226C241.876 73.1589 241.857 73.1952 241.83 73.2225C241.802 73.2497 241.766 73.2769 241.72 73.2951C241.683 73.3132 241.638 73.3223 241.592 73.3223C241.546 73.3223 241.51 73.3132 241.464 73.2951C241.427 73.2769 241.391 73.2588 241.363 73.2225C241.336 73.1952 241.308 73.1589 241.29 73.1226C241.272 73.0863 241.263 73.041 241.263 73.0047C241.263 72.9593 241.272 72.9139 241.29 72.8776C241.308 72.8413 241.327 72.805 241.363 72.7778C241.391 72.7505 241.427 72.7233 241.464 72.7142C241.501 72.6961 241.546 72.687 241.592 72.687C241.638 72.687 241.683 72.6961 241.72 72.7142C241.757 72.7324 241.793 72.7505 241.821 72.7778C241.848 72.805 241.876 72.8413 241.894 72.8776C241.912 72.9048 241.921 72.9502 241.921 72.9956ZM241.857 73.6127L241.876 75.7182L241.363 75.7273L241.336 73.6218L241.857 73.6127Z" fill="#121314"/>
<path d="M244.538 75.6777L244.026 75.6868L244.007 73.9625L243.02 73.9716L243.029 75.1151C243.029 75.1786 243.047 75.233 243.074 75.2693C243.111 75.3056 243.148 75.3238 243.212 75.3238C243.248 75.3238 243.267 75.3147 243.294 75.3147C243.312 75.3056 243.331 75.2966 243.349 75.2875C243.367 75.2784 243.376 75.2693 243.385 75.2603C243.404 75.2512 243.413 75.2512 243.422 75.2512C243.431 75.2512 243.449 75.2512 243.459 75.2603C243.468 75.2693 243.477 75.2784 243.486 75.2966L243.642 75.5416C243.568 75.6051 243.477 75.6505 243.385 75.6868C243.285 75.7231 243.184 75.7322 243.084 75.7322C242.901 75.7322 242.754 75.6868 242.654 75.5779C242.553 75.4781 242.498 75.3329 242.498 75.1514L242.489 73.9806H242.27C242.242 73.9806 242.215 73.9716 242.196 73.9534C242.178 73.9353 242.169 73.908 242.169 73.8717V73.6721L242.507 73.6086L242.608 73.0368C242.617 73.0096 242.626 72.9914 242.645 72.9733C242.663 72.9551 242.69 72.9551 242.718 72.9551H242.983L242.992 73.6176L244.492 73.5995L244.538 75.6777ZM244.602 72.9551C244.602 73.0005 244.593 73.0368 244.575 73.0822C244.556 73.1185 244.538 73.1548 244.501 73.182C244.474 73.2092 244.437 73.2365 244.401 73.2546C244.364 73.2728 244.318 73.2818 244.273 73.2818C244.227 73.2818 244.19 73.2728 244.145 73.2546C244.108 73.2365 244.071 73.2183 244.044 73.182C244.017 73.1548 243.989 73.1185 243.971 73.0822C243.953 73.0459 243.943 73.0005 243.943 72.9551C243.943 72.9098 243.953 72.8644 243.971 72.8281C243.989 72.7918 244.007 72.7555 244.044 72.7282C244.071 72.701 244.108 72.6738 244.145 72.6556C244.181 72.6375 244.227 72.6284 244.273 72.6284C244.318 72.6284 244.364 72.6375 244.401 72.6556C244.437 72.6738 244.474 72.6919 244.501 72.7282C244.529 72.7555 244.556 72.7918 244.575 72.8281C244.593 72.8644 244.602 72.9098 244.602 72.9551Z" fill="#121314"/>
<path d="M245.973 73.5308C246.129 73.5308 246.275 73.5489 246.403 73.6034C246.531 73.6578 246.641 73.7213 246.733 73.8121C246.824 73.9029 246.897 74.0208 246.952 74.1479C247.007 74.284 247.025 74.4292 247.034 74.5926C247.044 74.7559 247.016 74.9102 246.961 75.0463C246.916 75.1825 246.842 75.2914 246.751 75.3912C246.659 75.482 246.55 75.5636 246.422 75.609C246.294 75.6635 246.156 75.6907 245.992 75.6907C245.836 75.6907 245.69 75.6725 245.562 75.6181C245.434 75.5636 245.315 75.5001 245.233 75.4003C245.141 75.3095 245.068 75.1916 245.013 75.0645C244.958 74.9284 244.94 74.7832 244.931 74.6107C244.931 74.4474 244.949 74.2931 245.004 74.157C245.05 74.0208 245.123 73.9119 245.214 73.8121C245.306 73.7213 245.415 73.6487 245.543 73.5943C245.681 73.558 245.818 73.5398 245.973 73.5308ZM246.001 75.3095C246.175 75.3095 246.303 75.246 246.385 75.128C246.467 75.01 246.513 74.8376 246.504 74.6107C246.504 74.3838 246.458 74.2114 246.376 74.0934C246.294 73.9755 246.156 73.921 245.983 73.921C245.8 73.921 245.672 73.9845 245.589 74.1025C245.507 74.2205 245.461 74.3929 245.461 74.6198C245.461 74.8467 245.507 75.0191 245.598 75.1371C245.681 75.2551 245.818 75.3095 246.001 75.3095Z" fill="#121314"/>
<path d="M247.895 73.8029C247.932 73.7575 247.987 73.7212 248.032 73.6849C248.078 73.6486 248.133 73.6123 248.179 73.5942C248.234 73.5669 248.288 73.5488 248.353 73.5306C248.417 73.5125 248.481 73.5125 248.554 73.5034C248.673 73.5034 248.773 73.5216 248.865 73.5579C248.956 73.5942 249.029 73.6486 249.093 73.7212C249.157 73.7848 249.203 73.8755 249.231 73.9753C249.267 74.0752 249.276 74.1841 249.276 74.293L249.295 75.6361L248.782 75.6452L248.773 74.3111C248.773 74.1841 248.737 74.0842 248.682 74.0116C248.618 73.939 248.526 73.9118 248.407 73.9118C248.316 73.9118 248.234 73.93 248.16 73.9753C248.087 74.0116 248.014 74.0752 247.941 74.1387L247.959 75.6633L247.447 75.6724L247.429 73.5669H247.74C247.804 73.5669 247.849 73.5942 247.868 73.6577L247.895 73.8029Z" fill="#121314"/>
<path d="M249.706 73.8214C249.953 73.5945 250.246 73.4856 250.584 73.4766C250.712 73.4766 250.822 73.4947 250.914 73.531C251.014 73.5673 251.097 73.6308 251.17 73.6944C251.234 73.767 251.289 73.8487 251.325 73.9485C251.362 74.0483 251.38 74.1572 251.38 74.2752L251.389 75.6002H251.161C251.115 75.6002 251.078 75.5911 251.051 75.582C251.023 75.573 251.005 75.5367 250.987 75.4913L250.941 75.337C250.886 75.3824 250.841 75.4278 250.786 75.4641C250.74 75.5004 250.685 75.5367 250.63 75.5548C250.575 75.582 250.52 75.6002 250.456 75.6093C250.392 75.6183 250.328 75.6274 250.246 75.6274C250.155 75.6274 250.072 75.6183 249.999 75.5911C249.926 75.573 249.862 75.5367 249.798 75.4822C249.743 75.4368 249.697 75.3733 249.67 75.3007C249.642 75.2281 249.624 75.1464 249.624 75.0557C249.624 75.0012 249.633 74.9468 249.651 74.9014C249.67 74.8469 249.697 74.7925 249.734 74.7471C249.78 74.7017 249.825 74.6564 249.889 74.611C249.953 74.5656 250.036 74.5293 250.127 74.5021C250.219 74.4658 250.328 74.4385 250.456 74.4204C250.584 74.4022 250.722 74.3841 250.886 74.3841V74.257C250.886 74.1209 250.85 74.012 250.795 73.9485C250.731 73.885 250.648 73.8487 250.53 73.8487C250.447 73.8487 250.374 73.8577 250.328 73.8759C250.273 73.894 250.228 73.9213 250.182 73.9394C250.136 73.9666 250.109 73.9848 250.072 74.0029C250.036 74.0211 249.999 74.0302 249.962 74.0302C249.926 74.0302 249.898 74.0211 249.871 74.0029C249.844 73.9848 249.825 73.9666 249.807 73.9394L249.706 73.8214ZM250.886 74.7199C250.74 74.729 250.612 74.738 250.511 74.7562C250.411 74.7743 250.328 74.8016 250.273 74.8288C250.209 74.856 250.164 74.8923 250.145 74.9286C250.118 74.9649 250.109 75.0103 250.109 75.0557C250.109 75.1464 250.136 75.21 250.191 75.2463C250.246 75.2826 250.319 75.3007 250.401 75.3007C250.502 75.3007 250.594 75.2826 250.676 75.2372C250.749 75.2009 250.831 75.1373 250.895 75.0647L250.886 74.7199Z" fill="#121314"/>
<path d="M252.358 72.5581L252.395 75.5983L251.883 75.6074L251.846 72.5672L252.358 72.5581Z" fill="#121314"/>
<path d="M268.455 130.969L223.462 130.896C220.508 130.887 218.111 128.518 218.111 125.587L218.139 110.603C218.148 107.672 220.544 105.303 223.508 105.313L268.5 105.385C271.455 105.394 273.851 107.763 273.851 110.694L273.824 125.678C273.815 128.6 271.409 130.969 268.455 130.969Z" fill="white" stroke="#050505" stroke-width="0.5" stroke-miterlimit="10"/>
<path opacity="0.4" d="M225.978 116.872L263.507 116.936C264.019 116.936 264.44 116.527 264.44 116.019C264.44 115.511 264.019 115.103 263.516 115.103L225.987 115.039C225.475 115.039 225.054 115.457 225.054 115.956C225.045 116.455 225.466 116.872 225.978 116.872Z" fill="white" stroke="#050505" stroke-width="0.5" stroke-miterlimit="10"/>
<path opacity="0.4" d="M225.968 120.985L263.488 121.048C264 121.048 264.421 120.64 264.421 120.132C264.421 119.623 264.009 119.215 263.497 119.215L225.968 119.151C225.456 119.151 225.035 119.56 225.035 120.068C225.044 120.576 225.456 120.985 225.968 120.985Z" fill="white" stroke="#050505" stroke-width="0.5" stroke-miterlimit="10"/>
<path opacity="0.4" d="M225.959 125.104L263.488 125.167C264 125.167 264.421 124.75 264.421 124.251C264.421 123.742 264 123.334 263.497 123.334L225.968 123.271C225.456 123.271 225.035 123.688 225.035 124.187C225.035 124.695 225.447 125.104 225.959 125.104Z" fill="white" stroke="#050505" stroke-width="0.5" stroke-miterlimit="10"/>
<path d="M226.646 111.877L226.088 111.886L226.061 108.927L226.618 108.918L226.646 111.877Z" fill="#121314"/>
<path d="M227.662 110.014C227.707 109.968 227.753 109.932 227.799 109.896C227.845 109.86 227.899 109.832 227.945 109.805C228 109.778 228.055 109.76 228.119 109.742C228.183 109.733 228.247 109.723 228.32 109.714C228.439 109.714 228.54 109.733 228.631 109.769C228.723 109.805 228.796 109.86 228.86 109.932C228.924 109.996 228.97 110.086 228.997 110.186C229.034 110.286 229.052 110.395 229.052 110.513L229.061 111.847L228.549 111.856L228.54 110.513C228.54 110.386 228.503 110.286 228.448 110.213C228.384 110.141 228.293 110.105 228.174 110.105C228.082 110.105 228 110.123 227.927 110.168C227.854 110.213 227.781 110.268 227.707 110.331L227.717 111.856L227.204 111.865L227.186 109.76H227.497C227.561 109.76 227.607 109.787 227.625 109.85L227.662 110.014Z" fill="#121314"/>
<path d="M231.356 108.783L231.384 111.823H231.073C231.009 111.823 230.963 111.796 230.945 111.732L230.899 111.533C230.817 111.632 230.716 111.714 230.606 111.769C230.496 111.832 230.368 111.859 230.222 111.859C230.103 111.859 229.993 111.841 229.902 111.796C229.801 111.75 229.719 111.678 229.655 111.587C229.582 111.496 229.527 111.387 229.49 111.251C229.454 111.115 229.426 110.961 229.426 110.788C229.426 110.634 229.445 110.489 229.49 110.353C229.527 110.217 229.591 110.099 229.673 109.999C229.756 109.899 229.847 109.817 229.957 109.763C230.067 109.708 230.195 109.681 230.332 109.672C230.451 109.672 230.551 109.69 230.634 109.727C230.716 109.763 230.789 109.808 230.862 109.872L230.853 108.765L231.356 108.783ZM230.862 110.262C230.807 110.199 230.743 110.144 230.67 110.117C230.606 110.09 230.524 110.071 230.451 110.071C230.378 110.071 230.304 110.09 230.24 110.117C230.176 110.144 230.121 110.189 230.085 110.244C230.039 110.298 230.003 110.38 229.984 110.462C229.966 110.552 229.948 110.661 229.948 110.779C229.948 110.906 229.957 111.006 229.984 111.088C230.003 111.17 230.03 111.242 230.076 111.297C230.112 111.351 230.158 111.387 230.213 111.415C230.268 111.442 230.323 111.451 230.396 111.451C230.506 111.451 230.588 111.424 230.661 111.378C230.734 111.333 230.807 111.269 230.871 111.188L230.862 110.262Z" fill="#121314"/>
<path d="M232.463 109.099C232.463 109.144 232.454 109.181 232.436 109.217C232.418 109.253 232.39 109.289 232.363 109.317C232.335 109.344 232.299 109.371 232.262 109.38C232.225 109.398 232.18 109.407 232.134 109.407C232.088 109.407 232.052 109.398 232.006 109.38C231.969 109.362 231.933 109.344 231.905 109.317C231.878 109.289 231.85 109.253 231.832 109.217C231.814 109.181 231.805 109.135 231.805 109.099C231.805 109.054 231.814 109.008 231.832 108.972C231.85 108.936 231.869 108.899 231.896 108.872C231.924 108.845 231.96 108.818 231.997 108.808C232.033 108.79 232.079 108.781 232.125 108.781C232.171 108.781 232.216 108.79 232.253 108.808C232.299 108.827 232.326 108.845 232.353 108.872C232.381 108.899 232.408 108.936 232.427 108.972C232.454 109.017 232.463 109.054 232.463 109.099ZM232.399 109.716L232.418 111.821L231.905 111.831L231.887 109.725L232.399 109.716Z" fill="#121314"/>
<path d="M234.833 109.688L234.01 111.793L233.543 111.802L232.684 109.706H233.104C233.141 109.706 233.178 109.715 233.205 109.733C233.232 109.751 233.251 109.769 233.26 109.796L233.681 110.913C233.699 110.976 233.717 111.04 233.745 111.103C233.763 111.167 233.781 111.23 233.79 111.294C233.799 111.23 233.818 111.167 233.836 111.103C233.854 111.04 233.873 110.976 233.891 110.913L234.303 109.787C234.312 109.76 234.33 109.742 234.357 109.724C234.385 109.706 234.412 109.697 234.449 109.697L234.833 109.688Z" fill="#121314"/>
<path d="M235.702 109.073C235.702 109.119 235.692 109.155 235.674 109.2C235.656 109.237 235.628 109.273 235.601 109.3C235.573 109.327 235.537 109.355 235.5 109.373C235.464 109.391 235.418 109.4 235.372 109.4C235.327 109.4 235.29 109.391 235.244 109.373C235.208 109.355 235.171 109.336 235.144 109.309C235.116 109.282 235.089 109.246 235.07 109.209C235.052 109.173 235.043 109.128 235.043 109.082C235.043 109.037 235.052 108.992 235.07 108.955C235.089 108.919 235.107 108.883 235.134 108.855C235.162 108.828 235.198 108.801 235.235 108.792C235.272 108.774 235.317 108.765 235.363 108.765C235.409 108.765 235.455 108.774 235.491 108.792C235.528 108.81 235.564 108.828 235.592 108.864C235.619 108.892 235.647 108.928 235.665 108.964C235.692 108.982 235.702 109.028 235.702 109.073ZM235.638 109.681L235.656 111.787L235.144 111.796L235.125 109.699L235.638 109.681Z" fill="#121314"/>
<path d="M237.996 108.717L238.024 111.758H237.713C237.64 111.758 237.603 111.73 237.585 111.667L237.539 111.467C237.457 111.567 237.356 111.649 237.246 111.703C237.137 111.767 237.009 111.794 236.862 111.794C236.743 111.794 236.643 111.776 236.542 111.721C236.441 111.676 236.359 111.603 236.295 111.513C236.222 111.422 236.167 111.313 236.13 111.177C236.094 111.041 236.066 110.886 236.066 110.714C236.066 110.56 236.085 110.414 236.13 110.278C236.167 110.142 236.231 110.024 236.313 109.933C236.396 109.834 236.487 109.752 236.597 109.698C236.707 109.643 236.835 109.616 236.972 109.607C237.091 109.607 237.191 109.625 237.274 109.661C237.356 109.698 237.438 109.743 237.502 109.806L237.493 108.699L237.996 108.717ZM237.493 110.206C237.438 110.142 237.374 110.088 237.301 110.061C237.237 110.033 237.155 110.024 237.082 110.024C237.009 110.024 236.935 110.042 236.871 110.07C236.807 110.097 236.752 110.142 236.716 110.197C236.67 110.251 236.643 110.333 236.615 110.414C236.597 110.505 236.579 110.614 236.579 110.732C236.579 110.85 236.588 110.959 236.615 111.041C236.643 111.122 236.661 111.195 236.707 111.249C236.743 111.304 236.789 111.34 236.844 111.367C236.899 111.395 236.954 111.404 237.027 111.404C237.137 111.404 237.219 111.376 237.301 111.331C237.374 111.286 237.448 111.222 237.512 111.14L237.493 110.206Z" fill="#121314"/>
<path d="M240.338 109.645L240.357 111.75H240.046C239.973 111.75 239.936 111.723 239.918 111.659L239.881 111.496C239.799 111.587 239.698 111.65 239.598 111.714C239.488 111.768 239.369 111.795 239.232 111.795C239.113 111.795 239.012 111.777 238.921 111.741C238.829 111.705 238.756 111.65 238.692 111.578C238.628 111.505 238.582 111.423 238.555 111.323C238.518 111.224 238.509 111.115 238.509 111.006L238.5 109.672L239.012 109.663L239.021 110.997C239.021 111.124 239.058 111.224 239.113 111.296C239.177 111.369 239.259 111.396 239.378 111.396C239.47 111.396 239.552 111.378 239.625 111.333C239.698 111.296 239.771 111.242 239.845 111.169L239.835 109.645H240.338Z" fill="#121314"/>
<path d="M240.795 109.935C241.042 109.708 241.335 109.599 241.673 109.59C241.801 109.59 241.911 109.608 242.003 109.645C242.103 109.681 242.185 109.745 242.25 109.808C242.323 109.881 242.368 109.962 242.405 110.062C242.442 110.162 242.46 110.271 242.46 110.389L242.478 111.714H242.25C242.204 111.714 242.167 111.705 242.14 111.696C242.112 111.687 242.094 111.65 242.076 111.605L242.03 111.451C241.975 111.496 241.929 111.542 241.875 111.578C241.829 111.614 241.774 111.641 241.719 111.669C241.664 111.696 241.609 111.714 241.545 111.723C241.481 111.732 241.417 111.741 241.335 111.741C241.243 111.741 241.161 111.732 241.088 111.705C241.015 111.687 240.951 111.65 240.887 111.596C240.832 111.551 240.786 111.487 240.759 111.414C240.731 111.342 240.713 111.26 240.713 111.169C240.713 111.115 240.722 111.061 240.74 111.015C240.759 110.961 240.786 110.906 240.823 110.861C240.859 110.816 240.914 110.77 240.978 110.725C241.042 110.679 241.124 110.643 241.216 110.616C241.307 110.58 241.417 110.552 241.545 110.534C241.673 110.516 241.81 110.498 241.975 110.498V110.371C241.975 110.235 241.939 110.126 241.884 110.062C241.82 109.999 241.737 109.962 241.618 109.962C241.536 109.962 241.463 109.972 241.408 109.99C241.353 110.008 241.307 110.035 241.262 110.053C241.216 110.071 241.189 110.099 241.152 110.117C241.115 110.135 241.079 110.144 241.042 110.144C241.006 110.144 240.978 110.135 240.951 110.117C240.923 110.099 240.905 110.08 240.887 110.053L240.795 109.935ZM241.975 110.834C241.829 110.843 241.701 110.852 241.6 110.87C241.5 110.888 241.417 110.915 241.362 110.943C241.298 110.97 241.262 111.006 241.234 111.042C241.207 111.079 241.198 111.124 241.198 111.169C241.198 111.26 241.225 111.324 241.28 111.36C241.335 111.396 241.408 111.414 241.49 111.414C241.6 111.414 241.682 111.396 241.765 111.351C241.838 111.315 241.92 111.26 241.984 111.179L241.975 110.834Z" fill="#121314"/>
<path d="M243.448 108.672L243.476 111.712L242.963 111.721L242.936 108.681L243.448 108.672Z" fill="#121314"/>
<path d="M256.528 18.9219H235.372C233.469 18.9219 231.915 17.3791 231.915 15.5005C231.915 13.6128 233.469 12.0791 235.372 12.0791H256.528C258.431 12.0791 259.986 13.6219 259.986 15.5005C259.995 17.3882 258.431 18.9219 256.528 18.9219Z" fill="#121314"/>
<path d="M221.12 23.0264L220.379 23.5528L219.638 23.0355C219.803 22.8086 220.077 22.6543 220.379 22.6543C220.681 22.6543 220.955 22.7995 221.12 23.0264Z" fill="#868686"/>
<path d="M220.379 21.376C219.638 21.376 218.979 21.739 218.586 22.3017L219.052 22.6284C219.345 22.22 219.83 21.9477 220.379 21.9477C220.918 21.9477 221.403 22.2109 221.696 22.6193L222.162 22.2926C221.769 21.7299 221.11 21.376 220.379 21.376Z" fill="#868686"/>
<path d="M220.379 18.9424C218.806 18.9424 217.416 19.7138 216.574 20.9027L217.041 21.2294C217.782 20.1948 218.998 19.5141 220.37 19.5141C221.733 19.5141 222.94 20.1766 223.681 21.2021L224.148 20.8754C223.315 19.6956 221.934 18.9424 220.379 18.9424Z" fill="#868686"/>
<path d="M220.379 20.2676C219.263 20.2676 218.276 20.8121 217.672 21.6561L218.138 21.9828C218.641 21.2931 219.455 20.8393 220.379 20.8393C221.294 20.8393 222.108 21.284 222.611 21.9647L223.078 21.638C222.474 20.803 221.486 20.2676 220.379 20.2676Z" fill="#868686"/>
<path d="M262.428 85.7368H299.911C302.271 85.7368 304.182 83.8401 304.182 81.5077V59.5182C304.182 57.1767 302.271 55.2891 299.911 55.2891H262.428C260.068 55.2891 258.156 57.1858 258.156 59.5182V81.5077C258.156 83.8401 260.068 85.7368 262.428 85.7368Z" fill="#121314"/>
<path d="M281.746 71.5078H281.316C278.453 71.5078 276.139 69.2117 276.139 66.3893V65.9627C276.139 63.1312 278.462 60.8442 281.316 60.8442H281.746C284.608 60.8442 286.923 63.1403 286.923 65.9627V66.3893C286.923 69.2117 284.599 71.5078 281.746 71.5078Z" fill="white"/>
<path d="M280.795 68.0019C281.17 67.4483 281.572 66.8584 281.975 66.2685C282.487 65.5062 283.008 64.7438 283.52 63.9815C283.63 63.8272 283.776 63.7637 283.959 63.8C284.133 63.8272 284.298 63.9724 284.298 64.1449C284.298 64.2719 284.252 64.408 284.188 64.5079C283.511 65.5152 282.834 66.5226 282.148 67.5209C281.837 67.9837 281.526 68.4466 281.215 68.9094C281.014 69.2089 280.731 69.2361 280.474 68.982C279.944 68.4466 279.423 67.9202 278.892 67.3848C278.746 67.2395 278.718 67.0671 278.792 66.9128C278.874 66.7404 279.048 66.6224 279.221 66.6587C279.322 66.6769 279.432 66.7404 279.514 66.813C279.944 67.1942 280.365 67.5935 280.795 68.0019Z" fill="#121314"/>
<path d="M274.876 75.1352C274.867 75.1533 274.858 75.1624 274.84 75.1715C274.831 75.1806 274.812 75.1806 274.794 75.1806C274.776 75.1806 274.757 75.1715 274.739 75.1624C274.721 75.1533 274.693 75.1352 274.666 75.117C274.639 75.0989 274.602 75.0898 274.565 75.0717C274.529 75.0626 274.483 75.0535 274.428 75.0535C274.382 75.0535 274.337 75.0626 274.3 75.0717C274.264 75.0807 274.236 75.0989 274.209 75.117C274.181 75.1352 274.163 75.1624 274.154 75.1896C274.145 75.2169 274.135 75.2532 274.135 75.2804C274.135 75.3258 274.145 75.3621 274.172 75.3893C274.2 75.4165 274.227 75.4438 274.273 75.4619C274.309 75.4801 274.355 75.4982 274.41 75.5164C274.465 75.5345 274.51 75.5527 274.565 75.5708C274.62 75.589 274.675 75.6071 274.73 75.6343C274.785 75.6616 274.831 75.6888 274.867 75.7251C274.913 75.7614 274.94 75.8068 274.968 75.8612C274.995 75.9157 275.004 75.9792 275.004 76.0609C275.004 76.1426 274.995 76.2242 274.959 76.2968C274.931 76.3694 274.886 76.433 274.831 76.4874C274.776 76.5419 274.703 76.5872 274.629 76.6145C274.547 76.6417 274.456 76.6599 274.355 76.6599C274.291 76.6599 274.236 76.6508 274.181 76.6417C274.126 76.6326 274.071 76.6145 274.017 76.5963C273.962 76.5691 273.916 76.5509 273.87 76.5237C273.824 76.4965 273.779 76.4602 273.742 76.4239L273.843 76.2605C273.852 76.2515 273.861 76.2424 273.879 76.2333C273.898 76.2242 273.907 76.2242 273.925 76.2242C273.943 76.2242 273.971 76.2333 273.998 76.2515C274.026 76.2696 274.053 76.2878 274.09 76.3059C274.126 76.3241 274.163 76.3513 274.209 76.3604C274.254 76.3785 274.309 76.3876 274.373 76.3876C274.474 76.3876 274.547 76.3604 274.602 76.315C274.657 76.2696 274.684 76.197 274.684 76.1153C274.684 76.07 274.675 76.0246 274.648 75.9973C274.62 75.961 274.593 75.9429 274.547 75.9247C274.501 75.9066 274.465 75.8884 274.41 75.8703C274.355 75.8521 274.309 75.8431 274.254 75.8249C274.2 75.8068 274.154 75.7886 274.099 75.7614C274.044 75.7342 273.998 75.7069 273.962 75.6706C273.916 75.6343 273.889 75.5799 273.861 75.5254C273.834 75.471 273.825 75.3984 273.825 75.3167C273.825 75.2441 273.834 75.1806 273.87 75.117C273.898 75.0535 273.934 74.9991 273.989 74.9446C274.044 74.8992 274.108 74.8538 274.181 74.8266C274.254 74.7994 274.346 74.7812 274.446 74.7812C274.556 74.7812 274.657 74.7994 274.748 74.8357C274.84 74.872 274.922 74.9174 274.986 74.9809L274.876 75.1352Z" fill="white"/>
<path d="M276.057 76.3821C276.121 76.3821 276.185 76.373 276.24 76.3457C276.295 76.3276 276.341 76.2913 276.377 76.255C276.414 76.2096 276.441 76.1642 276.46 76.1098C276.478 76.0553 276.487 75.9918 276.487 75.9192V74.812H276.835V75.9192C276.835 76.0281 276.816 76.137 276.78 76.2278C276.743 76.3185 276.688 76.4002 276.624 76.4728C276.56 76.5454 276.478 76.5908 276.377 76.6271C276.286 76.6634 276.176 76.6815 276.057 76.6815C275.938 76.6815 275.828 76.6634 275.728 76.6271C275.627 76.5908 275.554 76.5363 275.481 76.4728C275.417 76.4002 275.362 76.3276 275.325 76.2278C275.289 76.137 275.271 76.0372 275.271 75.9192V74.812H275.618V75.9192C275.618 75.9918 275.627 76.0553 275.646 76.1098C275.664 76.1642 275.691 76.2187 275.728 76.255C275.764 76.3004 275.81 76.3276 275.865 76.3457C275.929 76.3639 275.993 76.3821 276.057 76.3821Z" fill="white"/>
<path d="M278.508 76.2159C278.527 76.2159 278.545 76.225 278.554 76.2341L278.691 76.3793C278.618 76.47 278.527 76.5426 278.408 76.5971C278.298 76.6425 278.161 76.6697 278.005 76.6697C277.868 76.6697 277.74 76.6425 277.63 76.5971C277.52 76.5517 277.42 76.4882 277.347 76.3974C277.273 76.3158 277.209 76.2159 277.164 76.0979C277.118 75.98 277.1 75.8529 277.1 75.7168C277.1 75.5807 277.118 75.4445 277.164 75.3356C277.209 75.2176 277.273 75.1178 277.356 75.0361C277.438 74.9545 277.539 74.8909 277.648 74.8456C277.758 74.8002 277.886 74.7729 278.023 74.7729C278.161 74.7729 278.28 74.7911 278.389 74.8365C278.49 74.8819 278.581 74.9363 278.655 75.0089L278.536 75.1723C278.527 75.1813 278.517 75.1904 278.508 75.1995C278.499 75.2086 278.481 75.2086 278.462 75.2086C278.444 75.2086 278.435 75.2086 278.417 75.1995C278.408 75.1904 278.389 75.1813 278.371 75.1723C278.353 75.1632 278.334 75.1541 278.316 75.136C278.298 75.1269 278.27 75.1087 278.243 75.0997C278.216 75.0906 278.179 75.0815 278.142 75.0724C278.106 75.0634 278.06 75.0634 278.014 75.0634C277.932 75.0634 277.859 75.0724 277.786 75.1087C277.712 75.136 277.658 75.1813 277.603 75.2358C277.557 75.2902 277.511 75.3628 277.484 75.4355C277.456 75.5171 277.447 75.6079 277.447 75.7077C277.447 75.8075 277.456 75.9074 277.493 75.989C277.52 76.0707 277.557 76.1433 277.612 76.1978C277.658 76.2522 277.722 76.2976 277.795 76.3248C277.868 76.3521 277.941 76.3702 278.014 76.3702C278.06 76.3702 278.106 76.3702 278.142 76.3611C278.179 76.3521 278.216 76.3521 278.243 76.3339C278.28 76.3248 278.307 76.3067 278.334 76.2885C278.362 76.2704 278.389 76.2522 278.417 76.225C278.426 76.2159 278.435 76.2159 278.444 76.2069C278.49 76.2159 278.499 76.2159 278.508 76.2159Z" fill="white"/>
<path d="M280.182 76.2159C280.2 76.2159 280.219 76.225 280.237 76.2341L280.374 76.3793C280.292 76.47 280.21 76.5426 280.091 76.5971C279.981 76.6425 279.844 76.6697 279.688 76.6697C279.551 76.6697 279.423 76.6425 279.313 76.5971C279.203 76.5517 279.103 76.4882 279.03 76.3974C278.956 76.3158 278.892 76.2159 278.847 76.0979C278.81 75.98 278.783 75.8529 278.783 75.7168C278.783 75.5807 278.801 75.4445 278.847 75.3356C278.892 75.2176 278.956 75.1178 279.039 75.0361C279.121 74.9545 279.222 74.8909 279.331 74.8456C279.441 74.8002 279.569 74.7729 279.706 74.7729C279.844 74.7729 279.963 74.7911 280.072 74.8365C280.173 74.8819 280.264 74.9363 280.347 75.0089L280.228 75.1723C280.219 75.1813 280.21 75.1904 280.2 75.1995C280.191 75.2086 280.173 75.2086 280.155 75.2086C280.146 75.2086 280.127 75.2086 280.118 75.1995C280.1 75.1904 280.091 75.1813 280.072 75.1723C280.054 75.1632 280.036 75.1541 280.017 75.136C279.999 75.1269 279.972 75.1087 279.944 75.0997C279.917 75.0906 279.88 75.0815 279.844 75.0724C279.807 75.0634 279.761 75.0634 279.716 75.0634C279.633 75.0634 279.551 75.0724 279.487 75.1087C279.414 75.136 279.359 75.1813 279.304 75.2358C279.258 75.2902 279.213 75.3628 279.185 75.4355C279.158 75.5171 279.139 75.6079 279.139 75.7077C279.139 75.8075 279.158 75.9074 279.185 75.989C279.213 76.0707 279.258 76.1433 279.304 76.1978C279.35 76.2522 279.414 76.2976 279.487 76.3248C279.551 76.3521 279.633 76.3702 279.706 76.3702C279.752 76.3702 279.798 76.3702 279.835 76.3611C279.871 76.3521 279.908 76.3521 279.935 76.3339C279.972 76.3248 279.999 76.3067 280.027 76.2885C280.054 76.2704 280.082 76.2522 280.109 76.225C280.118 76.2159 280.127 76.2159 280.136 76.2069C280.164 76.2159 280.173 76.2159 280.182 76.2159Z" fill="white"/>
<path d="M280.959 75.0735V75.5908H281.608V75.854H280.959V76.3804H281.791V76.6526H280.611V74.8013H281.791V75.0735H280.959Z" fill="white"/>
<path d="M283.1 75.1352C283.091 75.1533 283.081 75.1624 283.063 75.1715C283.054 75.1806 283.036 75.1806 283.017 75.1806C282.999 75.1806 282.981 75.1715 282.962 75.1624C282.944 75.1533 282.917 75.1352 282.889 75.117C282.862 75.0989 282.825 75.0898 282.789 75.0717C282.752 75.0626 282.706 75.0535 282.651 75.0535C282.606 75.0535 282.56 75.0626 282.523 75.0717C282.487 75.0807 282.459 75.0989 282.432 75.117C282.405 75.1352 282.386 75.1624 282.377 75.1896C282.368 75.2169 282.359 75.2532 282.359 75.2804C282.359 75.3258 282.368 75.3621 282.395 75.3893C282.423 75.4165 282.45 75.4438 282.496 75.4619C282.542 75.4801 282.578 75.4982 282.633 75.5164C282.688 75.5345 282.743 75.5527 282.798 75.5708C282.853 75.589 282.908 75.6071 282.953 75.6343C282.999 75.6616 283.054 75.6888 283.09 75.7251C283.136 75.7614 283.164 75.8068 283.191 75.8612C283.219 75.9157 283.228 75.9792 283.228 76.0609C283.228 76.1426 283.219 76.2242 283.182 76.2968C283.155 76.3694 283.109 76.433 283.054 76.4874C282.999 76.5419 282.926 76.5872 282.853 76.6145C282.77 76.6417 282.679 76.6599 282.578 76.6599C282.514 76.6599 282.459 76.6508 282.405 76.6417C282.35 76.6326 282.295 76.6145 282.24 76.5963C282.185 76.5691 282.139 76.5509 282.094 76.5237C282.048 76.4965 282.002 76.4602 281.975 76.4239L282.075 76.2605C282.084 76.2515 282.094 76.2424 282.112 76.2333C282.13 76.2242 282.139 76.2242 282.158 76.2242C282.176 76.2242 282.203 76.2333 282.231 76.2515C282.258 76.2696 282.286 76.2878 282.322 76.3059C282.359 76.3241 282.395 76.3513 282.441 76.3604C282.487 76.3785 282.542 76.3876 282.606 76.3876C282.706 76.3876 282.78 76.3604 282.834 76.315C282.889 76.2696 282.917 76.197 282.917 76.1153C282.917 76.07 282.908 76.0246 282.88 75.9973C282.853 75.961 282.825 75.9429 282.78 75.9247C282.734 75.9066 282.697 75.8884 282.642 75.8703C282.587 75.8521 282.542 75.8431 282.487 75.8249C282.432 75.8068 282.386 75.7886 282.331 75.7614C282.276 75.7342 282.231 75.7069 282.194 75.6706C282.158 75.6343 282.121 75.5799 282.094 75.5254C282.066 75.471 282.057 75.3984 282.057 75.3167C282.057 75.2441 282.066 75.1806 282.094 75.117C282.121 75.0535 282.158 74.9991 282.212 74.9446C282.267 74.8902 282.331 74.8538 282.405 74.8266C282.478 74.7994 282.569 74.7812 282.67 74.7812C282.78 74.7812 282.88 74.7994 282.972 74.8357C283.063 74.872 283.145 74.9174 283.209 74.9809L283.1 75.1352Z" fill="white"/>
<path d="M284.517 75.1352C284.508 75.1533 284.499 75.1624 284.48 75.1715C284.471 75.1806 284.453 75.1806 284.435 75.1806C284.416 75.1806 284.398 75.1715 284.38 75.1624C284.361 75.1533 284.334 75.1352 284.307 75.117C284.279 75.0989 284.243 75.0898 284.206 75.0717C284.169 75.0626 284.124 75.0535 284.069 75.0535C284.023 75.0535 283.977 75.0626 283.941 75.0717C283.904 75.0807 283.877 75.0989 283.849 75.117C283.822 75.1352 283.804 75.1624 283.794 75.1896C283.785 75.2169 283.776 75.2532 283.776 75.2804C283.776 75.3258 283.785 75.3621 283.813 75.3893C283.84 75.4165 283.868 75.4438 283.913 75.4619C283.95 75.4801 283.996 75.4982 284.05 75.5164C284.105 75.5345 284.151 75.5527 284.215 75.5708C284.27 75.589 284.325 75.6071 284.371 75.6343C284.426 75.6616 284.471 75.6888 284.508 75.7251C284.554 75.7614 284.581 75.8068 284.608 75.8612C284.636 75.9157 284.645 75.9792 284.645 76.0609C284.645 76.1426 284.627 76.2242 284.599 76.2968C284.572 76.3694 284.526 76.433 284.471 76.4874C284.416 76.5419 284.352 76.5872 284.27 76.6145C284.188 76.6417 284.096 76.6599 283.996 76.6599C283.932 76.6599 283.877 76.6508 283.822 76.6417C283.767 76.6326 283.712 76.6145 283.657 76.5963C283.602 76.5691 283.557 76.5509 283.511 76.5237C283.465 76.4965 283.419 76.4602 283.383 76.4239L283.483 76.2605C283.493 76.2515 283.502 76.2424 283.52 76.2333C283.529 76.2242 283.547 76.2242 283.566 76.2242C283.584 76.2242 283.611 76.2333 283.639 76.2515C283.666 76.2696 283.694 76.2878 283.73 76.3059C283.767 76.3241 283.804 76.3513 283.849 76.3604C283.895 76.3785 283.95 76.3876 284.014 76.3876C284.115 76.3876 284.188 76.3604 284.243 76.315C284.297 76.2696 284.325 76.197 284.325 76.1153C284.325 76.07 284.316 76.0246 284.288 75.9973C284.261 75.961 284.233 75.9429 284.188 75.9247C284.142 75.9066 284.105 75.8884 284.05 75.8703C283.996 75.8521 283.95 75.8431 283.895 75.8249C283.84 75.8068 283.794 75.7886 283.74 75.7614C283.685 75.7342 283.639 75.7069 283.602 75.6706C283.566 75.6343 283.529 75.5799 283.502 75.5254C283.474 75.471 283.465 75.3984 283.465 75.3167C283.465 75.2441 283.474 75.1806 283.502 75.117C283.529 75.0535 283.566 74.9991 283.621 74.9446C283.675 74.8902 283.74 74.8538 283.813 74.8266C283.886 74.7994 283.977 74.7812 284.078 74.7812C284.188 74.7812 284.288 74.7994 284.389 74.8357C284.48 74.872 284.563 74.9174 284.627 74.9809L284.517 75.1352Z" fill="white"/>
<path d="M285.286 75.0735V75.6271H285.99V75.8994H285.286V76.6526H284.938V74.8013H286.118V75.0735H285.286Z" fill="white"/>
<path d="M287.151 76.3821C287.215 76.3821 287.279 76.373 287.334 76.3457C287.389 76.3276 287.435 76.2913 287.471 76.255C287.508 76.2096 287.535 76.1642 287.553 76.1098C287.572 76.0553 287.581 75.9918 287.581 75.9192V74.812H287.928V75.9192C287.928 76.0281 287.91 76.137 287.874 76.2278C287.837 76.3185 287.782 76.4002 287.718 76.4728C287.654 76.5454 287.572 76.5908 287.471 76.6271C287.371 76.6634 287.27 76.6815 287.151 76.6815C287.032 76.6815 286.922 76.6634 286.822 76.6271C286.721 76.5908 286.648 76.5363 286.584 76.4728C286.52 76.4002 286.465 76.3276 286.428 76.2278C286.392 76.137 286.374 76.0372 286.374 75.9192V74.812H286.721V75.9192C286.721 75.9918 286.73 76.0553 286.749 76.1098C286.767 76.1642 286.794 76.2187 286.831 76.255C286.867 76.3004 286.913 76.3276 286.968 76.3457C287.023 76.3639 287.087 76.3821 287.151 76.3821Z" fill="white"/>
<path d="M289.419 76.3713V76.6526H288.322V74.8013H288.669V76.3713H289.419Z" fill="white"/>
<path d="M273.56 78.9298H272.993V80.4998H272.645V78.9298H272.078V78.6484H273.551L273.56 78.9298Z" fill="white"/>
<path d="M275.262 80.4895H274.951C274.887 80.4895 274.85 80.4713 274.823 80.426L274.429 79.8361C274.42 79.8179 274.402 79.7997 274.384 79.7907C274.365 79.7816 274.338 79.7816 274.31 79.7816H274.164V80.5076H273.816V78.6562H274.384C274.512 78.6562 274.621 78.6744 274.713 78.6926C274.804 78.7198 274.877 78.7561 274.932 78.8015C274.987 78.8468 275.033 78.9013 275.06 78.9739C275.088 79.0374 275.106 79.11 275.106 79.1917C275.106 79.2552 275.097 79.3097 275.079 79.3732C275.06 79.4277 275.033 79.4821 274.996 79.5275C274.96 79.5729 274.923 79.6092 274.868 79.6455C274.813 79.6818 274.759 79.709 274.694 79.7271C274.713 79.7453 274.74 79.7544 274.758 79.7725C274.777 79.7907 274.795 79.8088 274.813 79.8361L275.262 80.4895ZM274.365 79.5275C274.429 79.5275 274.484 79.5184 274.539 79.5003C274.585 79.4821 274.63 79.464 274.658 79.4277C274.685 79.4004 274.713 79.3641 274.731 79.3278C274.749 79.2915 274.749 79.2461 274.749 79.2008C274.749 79.11 274.722 79.0374 274.658 78.983C274.594 78.9376 274.502 78.9104 274.374 78.9104H274.155V79.5275H274.365Z" fill="white"/>
<path d="M277.07 80.4907H276.805C276.778 80.4907 276.75 80.4817 276.732 80.4726C276.713 80.4544 276.695 80.4363 276.686 80.4181L276.549 80.037H275.771L275.634 80.4181C275.625 80.4363 275.616 80.4544 275.598 80.4726C275.579 80.4907 275.552 80.4998 275.524 80.4998H275.25L275.991 78.6484H276.348L277.07 80.4907ZM276.448 79.7919L276.22 79.1748C276.21 79.1476 276.201 79.1113 276.183 79.075C276.174 79.0387 276.156 78.9933 276.146 78.9479C276.137 78.9933 276.128 79.0296 276.11 79.075C276.101 79.1113 276.082 79.1476 276.073 79.1748L275.845 79.7919H276.448Z" fill="white"/>
<path d="M278.837 78.6487V80.5001H278.654C278.626 80.5001 278.608 80.491 278.581 80.482C278.562 80.4729 278.544 80.4547 278.526 80.4366L277.547 79.2023C277.556 79.2568 277.556 79.3112 277.556 79.3566V80.491H277.254V78.6396H277.437C277.446 78.6396 277.465 78.6396 277.474 78.6396C277.483 78.6396 277.492 78.6397 277.501 78.6487C277.51 78.6487 277.52 78.6578 277.529 78.6669C277.538 78.6759 277.547 78.685 277.556 78.6941L278.535 79.9374C278.535 79.9102 278.526 79.8739 278.526 79.8467C278.526 79.8195 278.526 79.7922 278.526 79.765V78.6396L278.837 78.6487Z" fill="white"/>
<path d="M280.254 78.9771C280.245 78.9952 280.236 79.0043 280.218 79.0134C280.199 79.0224 280.19 79.0224 280.172 79.0224C280.154 79.0224 280.135 79.0134 280.117 79.0043C280.099 78.9952 280.071 78.9771 280.044 78.9589C280.016 78.9408 279.98 78.9317 279.943 78.9135C279.907 78.9045 279.861 78.8954 279.806 78.8954C279.76 78.8954 279.715 78.9045 279.678 78.9135C279.641 78.9226 279.614 78.9408 279.587 78.9589C279.559 78.9861 279.541 79.0043 279.532 79.0315C279.523 79.0587 279.513 79.095 279.513 79.1223C279.513 79.1677 279.523 79.204 279.55 79.2312C279.577 79.2584 279.605 79.2856 279.651 79.3038C279.696 79.3219 279.733 79.3401 279.788 79.3582C279.843 79.3764 279.888 79.3945 279.952 79.4127C280.007 79.4308 280.062 79.449 280.108 79.4762C280.163 79.5034 280.209 79.5307 280.245 79.567C280.291 79.6033 280.318 79.6486 280.346 79.7031C280.373 79.7575 280.382 79.8211 280.382 79.9028C280.382 79.9844 280.364 80.0661 280.337 80.1387C280.309 80.2113 280.263 80.2748 280.209 80.3293C280.154 80.3837 280.081 80.4291 280.007 80.4564C279.925 80.4836 279.834 80.5017 279.733 80.5017C279.669 80.5017 279.614 80.4927 279.559 80.4836C279.504 80.4745 279.449 80.4563 279.395 80.4382C279.34 80.42 279.294 80.3928 279.248 80.3656C279.202 80.3384 279.157 80.3021 279.12 80.2658L279.221 80.1024C279.23 80.0933 279.239 80.0843 279.257 80.0752C279.276 80.0661 279.285 80.0661 279.303 80.0661C279.33 80.0661 279.349 80.0752 279.376 80.0933C279.404 80.1115 279.431 80.1296 279.468 80.1478C279.504 80.1659 279.541 80.1841 279.587 80.2022C279.632 80.2204 279.687 80.2295 279.751 80.2295C279.852 80.2295 279.925 80.2022 279.98 80.1569C280.035 80.1115 280.062 80.0389 280.062 79.9572C280.062 79.9118 280.053 79.8665 280.026 79.8392C279.998 79.8029 279.971 79.7848 279.925 79.7575C279.888 79.7394 279.843 79.7212 279.788 79.7031C279.733 79.694 279.687 79.6759 279.632 79.6577C279.577 79.6396 279.532 79.6214 279.477 79.5942C279.422 79.567 279.376 79.5397 279.34 79.5034C279.294 79.4671 279.266 79.4127 279.239 79.3582C279.212 79.3038 279.202 79.2312 279.202 79.1404C279.202 79.0678 279.221 79.0043 279.248 78.9408C279.276 78.8772 279.312 78.8228 279.367 78.7683C279.422 78.723 279.486 78.6776 279.559 78.6504C279.632 78.6231 279.724 78.605 279.824 78.605C279.934 78.605 280.035 78.6231 280.126 78.6594C280.218 78.6957 280.3 78.7411 280.364 78.8046L280.254 78.9771Z" fill="white"/>
<path d="M282.24 80.4907H281.975C281.947 80.4907 281.92 80.4817 281.902 80.4726C281.883 80.4544 281.865 80.4363 281.865 80.4181L281.728 80.037H280.95L280.813 80.4181C280.804 80.4363 280.795 80.4544 280.767 80.4726C280.749 80.4907 280.722 80.4998 280.694 80.4998H280.42L281.161 78.6484H281.518L282.24 80.4907ZM281.627 79.7919L281.399 79.1748C281.389 79.1476 281.38 79.1113 281.362 79.075C281.353 79.0387 281.335 78.9933 281.325 78.9479C281.316 78.9933 281.307 79.0296 281.289 79.075C281.28 79.1113 281.261 79.1476 281.252 79.1748L281.024 79.7919H281.627Z" fill="white"/>
<path d="M283.666 80.0558C283.685 80.0558 283.703 80.0648 283.712 80.0739L283.849 80.2191C283.776 80.3099 283.685 80.3825 283.566 80.4369C283.456 80.4823 283.319 80.5095 283.163 80.5095C283.026 80.5095 282.898 80.4823 282.788 80.4369C282.679 80.3915 282.578 80.328 282.505 80.2373C282.422 80.1556 282.368 80.0558 282.322 79.9378C282.276 79.8198 282.258 79.6928 282.258 79.5566C282.258 79.4205 282.276 79.2844 282.322 79.1755C282.368 79.0575 282.432 78.9577 282.514 78.876C282.596 78.7943 282.697 78.7308 282.807 78.6854C282.916 78.64 283.044 78.6128 283.182 78.6128C283.319 78.6128 283.438 78.6309 283.538 78.6763C283.639 78.7217 283.73 78.7761 283.813 78.8487L283.694 79.0121C283.685 79.0212 283.676 79.0303 283.666 79.0393C283.657 79.0484 283.639 79.0484 283.621 79.0484C283.611 79.0484 283.593 79.0484 283.575 79.0393C283.566 79.0303 283.547 79.0212 283.529 79.0121C283.511 79.003 283.493 78.994 283.474 78.9758C283.456 78.9576 283.429 78.9486 283.401 78.9395C283.374 78.9304 283.337 78.9213 283.301 78.9123C283.264 78.9032 283.218 78.9032 283.172 78.9032C283.09 78.9032 283.017 78.9123 282.944 78.9486C282.871 78.9758 282.816 79.0212 282.761 79.0756C282.715 79.1301 282.669 79.2027 282.642 79.2844C282.615 79.366 282.596 79.4568 282.596 79.5566C282.596 79.6565 282.615 79.7563 282.642 79.838C282.669 79.9196 282.706 79.9922 282.761 80.0467C282.807 80.1011 282.871 80.1465 282.944 80.1737C283.017 80.201 283.09 80.2191 283.163 80.2191C283.209 80.2191 283.255 80.2191 283.291 80.21C283.328 80.201 283.365 80.201 283.392 80.1828C283.429 80.1737 283.456 80.1556 283.483 80.1374C283.511 80.1193 283.538 80.1011 283.566 80.0739C283.575 80.0648 283.584 80.0648 283.593 80.0558C283.639 80.0648 283.657 80.0558 283.666 80.0558Z" fill="white"/>
<path d="M285.395 78.9298H284.837V80.4998H284.489V78.9298H283.922V78.6484H285.395V78.9298Z" fill="white"/>
<path d="M285.998 80.491H285.651V78.6396H285.998V80.491Z" fill="white"/>
<path d="M288.194 79.5657C288.194 79.7018 288.176 79.8289 288.121 79.9469C288.075 80.0648 288.011 80.1647 287.929 80.2463C287.846 80.328 287.746 80.4006 287.627 80.446C287.508 80.4914 287.38 80.5186 287.233 80.5186C287.096 80.5186 286.968 80.4914 286.849 80.446C286.73 80.4006 286.639 80.328 286.547 80.2463C286.465 80.1647 286.401 80.0558 286.355 79.9469C286.31 79.8289 286.282 79.7109 286.282 79.5657C286.282 79.4296 286.301 79.3025 286.355 79.1845C286.401 79.0666 286.465 78.9667 286.547 78.885C286.63 78.8034 286.73 78.7308 286.849 78.6854C286.968 78.64 287.096 78.6128 287.233 78.6128C287.325 78.6128 287.416 78.6219 287.499 78.6491C287.581 78.6672 287.663 78.7035 287.727 78.7398C287.801 78.7761 287.855 78.8306 287.919 78.885C287.974 78.9395 288.02 79.003 288.057 79.0756C288.093 79.1482 288.121 79.2208 288.148 79.3025C288.185 79.3933 288.194 79.4749 288.194 79.5657ZM287.837 79.5657C287.837 79.4659 287.819 79.3751 287.791 79.2934C287.764 79.2118 287.727 79.1392 287.673 79.0847C287.627 79.0303 287.563 78.9849 287.49 78.9577C287.416 78.9304 287.334 78.9123 287.243 78.9123C287.151 78.9123 287.069 78.9214 286.996 78.9577C286.922 78.9849 286.858 79.0303 286.804 79.0847C286.749 79.1392 286.712 79.2118 286.685 79.2934C286.657 79.3751 286.639 79.4659 286.639 79.5657C286.639 79.6655 286.648 79.7563 286.685 79.838C286.712 79.9196 286.749 79.9832 286.804 80.0376C286.858 80.0921 286.913 80.1374 286.996 80.1647C287.069 80.1919 287.151 80.21 287.243 80.21C287.334 80.21 287.416 80.201 287.49 80.1647C287.563 80.1374 287.627 80.0921 287.673 80.0376C287.727 79.9832 287.764 79.9106 287.791 79.838C287.828 79.7563 287.837 79.6746 287.837 79.5657Z" fill="white"/>
<path d="M290.078 78.6487V80.5001H289.895C289.868 80.5001 289.849 80.491 289.822 80.482C289.804 80.4729 289.785 80.4547 289.767 80.4366L288.788 79.2023C288.797 79.2568 288.797 79.3112 288.797 79.3566V80.491H288.496V78.6396H288.679C288.688 78.6396 288.706 78.6396 288.715 78.6396C288.724 78.6396 288.733 78.6397 288.743 78.6487C288.752 78.6487 288.761 78.6578 288.77 78.6669C288.779 78.6759 288.788 78.685 288.797 78.6941L289.776 79.9374C289.776 79.9102 289.767 79.8739 289.767 79.8467C289.767 79.8195 289.767 79.7922 289.767 79.765V78.6396L290.078 78.6487Z" fill="white"/>
<path d="M290.453 80.3186C290.453 80.2914 290.462 80.2641 290.471 80.246C290.481 80.2188 290.499 80.2006 290.508 80.1825C290.526 80.1643 290.545 80.1552 290.572 80.1462C290.599 80.1371 290.627 80.128 290.654 80.128C290.682 80.128 290.709 80.1371 290.728 80.1462C290.755 80.1552 290.773 80.1734 290.792 80.1825C290.81 80.2006 290.819 80.2188 290.837 80.246C290.846 80.2732 290.856 80.2914 290.856 80.3186C290.856 80.3458 290.846 80.373 290.837 80.3912C290.828 80.4184 290.81 80.4366 290.792 80.4547C290.773 80.4729 290.755 80.482 290.728 80.5001C290.7 80.5092 290.682 80.5092 290.654 80.5092C290.627 80.5092 290.599 80.5001 290.572 80.5001C290.545 80.491 290.526 80.4729 290.508 80.4547C290.49 80.4366 290.481 80.4184 290.471 80.3912C290.453 80.373 290.453 80.3458 290.453 80.3186ZM290.801 78.6396V79.3748C290.801 79.4474 290.801 79.529 290.792 79.6016C290.782 79.6742 290.773 79.7559 290.764 79.8376H290.545C290.535 79.7559 290.526 79.6742 290.517 79.6016C290.508 79.529 290.508 79.4474 290.508 79.3748V78.6396H290.801Z" fill="white"/>
<path d="M222.053 114.526C221.303 117.521 218.578 119.5 215.587 119.473C215.084 119.473 214.562 119.409 214.059 119.282L204.336 116.877C200.797 116.006 198.638 112.457 199.516 108.954C199.589 108.637 199.69 108.337 199.818 108.047C200.833 105.56 203.303 103.981 205.983 104.008C206.486 104.008 207.007 104.072 207.51 104.199L217.233 106.604C218.989 107.039 220.416 108.137 221.276 109.562C222.163 110.996 222.492 112.766 222.053 114.526Z" fill="white" stroke="#050505" stroke-width="0.3" stroke-miterlimit="10"/>
<path d="M216.473 126.607C215.723 129.602 212.998 131.589 210.016 131.553C209.504 131.544 208.991 131.489 208.47 131.362L201.144 129.547C197.613 128.676 195.454 125.128 196.333 121.634C196.488 121.007 196.735 120.417 197.064 119.882C198.244 117.894 200.439 116.66 202.79 116.687C203.302 116.697 203.814 116.751 204.336 116.878L211.662 118.693C213.501 119.147 214.955 120.309 215.815 121.833C216.611 123.231 216.894 124.928 216.473 126.607Z" fill="white" stroke="#050505" stroke-width="0.3" stroke-miterlimit="10"/>
<path d="M215.805 121.822C214.626 123.81 212.421 125.044 210.071 125.017C209.567 125.017 209.046 124.953 208.543 124.826L201.217 123.011C199.378 122.558 197.924 121.396 197.064 119.871C198.244 117.884 200.439 116.649 202.79 116.677C203.302 116.686 203.814 116.74 204.326 116.867L211.653 118.673C213.491 119.145 214.955 120.316 215.805 121.822Z" fill="#F2F2F2"/>
<path d="M227.623 102.448C226.873 105.443 224.148 107.431 221.166 107.394C220.663 107.394 220.141 107.331 219.638 107.204L207.51 104.209C203.97 103.329 201.821 99.7892 202.699 96.2861C202.863 95.6418 203.11 95.0428 203.449 94.5073C204.629 92.5289 206.815 91.3219 209.156 91.34C209.659 91.34 210.181 91.4036 210.684 91.5306L222.812 94.5255C224.632 94.9702 226.087 96.1318 226.937 97.6293C227.761 99.045 228.044 100.751 227.623 102.448Z" fill="white" stroke="#050505" stroke-width="0.3" stroke-miterlimit="10"/>
<path d="M226.937 97.6293C225.757 99.6077 223.571 100.815 221.23 100.797C220.727 100.797 220.205 100.733 219.702 100.606L207.583 97.6111C205.763 97.1664 204.309 96.0048 203.449 94.5073C204.638 92.5289 206.815 91.3219 209.156 91.34C209.659 91.34 210.181 91.4036 210.684 91.5306L222.812 94.5255C224.632 94.9702 226.087 96.1318 226.937 97.6293Z" fill="#F2F2F2"/>
<path d="M221.285 109.562C220.27 112.049 217.8 113.628 215.129 113.601C214.626 113.601 214.105 113.537 213.602 113.41L203.879 111.005C202.113 110.579 200.696 109.472 199.836 108.047C200.851 105.56 203.321 103.981 206.001 104.008C206.504 104.008 207.025 104.072 207.528 104.199L217.251 106.604C218.989 107.039 220.407 108.137 221.285 109.562Z" fill="#F2F2F2"/>
<mask id="mask1_8101_222707" style="mask-type:alpha" maskUnits="userSpaceOnUse" x="54" y="0" width="272" height="261">
<path d="M273.153 86.3064C274.535 50.731 260.888 26.6814 256.909 19.766C246.079 6.44336 233.969 2.79507 222.142 1.11613C202.157 -1.72445 164.93 0.0996933 139.667 15.5459C90.842 45.3857 71.4693 66.023 67.829 87.4952C62.9904 116.092 46.6087 153.682 59.6976 177.55C69.8595 196.073 76.2988 215.576 84.5582 229.715C92.8268 243.854 112.876 248.256 145.411 236.149C177.946 224.043 187.01 230.786 190.33 232.229C197.959 235.55 211.633 252.676 218.539 255.761C250.104 268.421 280.077 253.302 286.873 249.862C307.947 239.199 318.585 219.333 322.344 206.645C331.39 175.444 316.719 156.078 312.411 148.527C308.094 140.976 290.688 126.637 282.949 117.861C276.757 110.846 273.839 93.9024 273.153 86.3064Z" fill="#F2F2F2"/>
</mask>
<g mask="url(#mask1_8101_222707)">
<path d="M287.846 200.137L209.294 199.266L209.121 216.863L287.663 217.725L287.846 200.137Z" fill="white" stroke="#050505" stroke-width="0.3" stroke-miterlimit="10"/>
<path d="M204.172 216.801L203.715 264.401L292.145 265.372L292.602 217.772L204.172 216.801Z" fill="#121314"/>
</g>
</g>
<defs>
<clipPath id="clip0_8101_222707">
<rect width="375" height="265" fill="white"/>
</clipPath>
<clipPath id="clip1_8101_222707">
<rect width="129.5" height="159.25" fill="white" transform="translate(36 21)"/>
</clipPath>
</defs>
</svg>
